<svg width="49" height="40" viewBox="0 0 49 40" fill="none" xmlns="http://www.w3.org/2000/svg">
<path d="M30.7376 23.4374C30.7376 14.7372 23.8568 7.68436 15.3688 7.68436C6.88085 7.68436 0 14.7372 0 23.4374C0 32.1376 6.88085 39.1904 15.3688 39.1904C23.8568 39.1904 30.7376 32.1376 30.7376 23.4374ZM5.59841 23.4374C5.59841 17.9065 9.97277 13.4227 15.3688 13.4227C20.7649 13.4227 25.1392 17.9065 25.1392 23.4374C25.1392 28.9683 20.7649 33.4521 15.3688 33.4521C9.97277 33.4521 5.59841 28.9683 5.59841 23.4374Z" fill="#3498DB"/>
<path d="M48.4118 24.5901C48.4118 20.7706 45.3154 17.6742 41.4958 17.6742C37.6762 17.6742 34.5798 20.7706 34.5798 24.5901C34.5798 28.4097 37.6762 31.5061 41.4958 31.5061C45.3154 31.5061 48.4118 28.4097 48.4118 24.5901ZM37.0991 24.5901C37.0991 22.1619 39.0676 20.1935 41.4958 20.1935C43.924 20.1935 45.8925 22.1619 45.8925 24.5901C45.8925 27.0184 43.924 28.9868 41.4958 28.9868C39.0676 28.9868 37.0991 27.0184 37.0991 24.5901Z" fill="#E29E21"/>
<path d="M43.0327 7.68425C43.0327 3.44026 39.5923 -0.000161171 35.3483 -0.000161171C31.1043 -0.000161171 27.6639 3.44026 27.6639 7.68425C27.6639 11.9282 31.1043 15.3687 35.3483 15.3687C39.5923 15.3687 43.0327 11.9282 43.0327 7.68425ZM30.4631 7.68425C30.4631 4.98622 32.6503 2.79904 35.3483 2.79904C38.0463 2.79904 40.2335 4.98622 40.2335 7.68425C40.2335 10.3823 38.0463 12.5694 35.3483 12.5694C32.6503 12.5694 30.4631 10.3823 30.4631 7.68425Z" fill="#3498DB"/>
</svg>
