<svg width="1280" height="2561" viewBox="0 0 1280 2561" fill="none" xmlns="http://www.w3.org/2000/svg">
<g clip-path="url(#clip0_42_2)">
<path opacity="0.05" d="M435 102C435 240.623 322.623 353 184 353C45.3765 353 -67 240.623 -67 102C-67 -36.6235 45.3765 -149 184 -149C322.623 -149 435 -36.6235 435 102ZM24.432 102C24.432 190.127 95.873 261.568 184 261.568C272.127 261.568 343.568 190.127 343.568 102C343.568 13.873 272.127 -57.568 184 -57.568C95.873 -57.568 24.432 13.873 24.432 102Z" fill="url(#paint0_linear_42_2)"/>
<path opacity="0.05" d="M861 320.5C861 282.116 829.884 251 791.5 251C753.116 251 722 282.116 722 320.5C722 358.884 753.116 390 791.5 390C829.884 390 861 358.884 861 320.5ZM747.317 320.5C747.317 296.098 767.098 276.317 791.5 276.317C815.902 276.317 835.683 296.098 835.683 320.5C835.683 344.902 815.902 364.683 791.5 364.683C767.098 364.683 747.317 344.902 747.317 320.5Z" fill="url(#paint1_linear_42_2)"/>
<path opacity="0.05" d="M405 778C405 760.879 391.345 747 374.5 747C357.655 747 344 760.879 344 778C344 795.121 357.655 809 374.5 809C391.345 809 405 795.121 405 778ZM355.11 778C355.11 767.116 363.791 758.292 374.5 758.292C385.209 758.292 393.89 767.116 393.89 778C393.89 788.884 385.209 797.708 374.5 797.708C363.791 797.708 355.11 788.884 355.11 778Z" fill="url(#paint2_linear_42_2)"/>
<path opacity="0.05" d="M511 1373C511 1255.36 417.204 1160 301.5 1160C185.796 1160 92 1255.36 92 1373C92 1490.64 185.796 1586 301.5 1586C417.204 1586 511 1490.64 511 1373ZM168.315 1373C168.315 1298.21 227.944 1237.59 301.5 1237.59C375.056 1237.59 434.685 1298.21 434.685 1373C434.685 1447.79 375.056 1508.41 301.5 1508.41C227.944 1508.41 168.315 1447.79 168.315 1373Z" fill="url(#paint3_linear_42_2)"/>
<path opacity="0.05" d="M1198 2004C1198 1886.36 1104.2 1791 988.5 1791C872.796 1791 779 1886.36 779 2004C779 2121.64 872.796 2217 988.5 2217C1104.2 2217 1198 2121.64 1198 2004ZM855.315 2004C855.315 1929.21 914.944 1868.59 988.5 1868.59C1062.06 1868.59 1121.69 1929.21 1121.69 2004C1121.69 2078.79 1062.06 2139.41 988.5 2139.41C914.944 2139.41 855.315 2078.79 855.315 2004Z" fill="url(#paint4_linear_42_2)"/>
<path opacity="0.05" d="M1257 801.5C1257 763.116 1225.88 732 1187.5 732C1149.12 732 1118 763.116 1118 801.5C1118 839.884 1149.12 871 1187.5 871C1225.88 871 1257 839.884 1257 801.5ZM1143.32 801.5C1143.32 777.098 1163.1 757.317 1187.5 757.317C1211.9 757.317 1231.68 777.098 1231.68 801.5C1231.68 825.902 1211.9 845.683 1187.5 845.683C1163.1 845.683 1143.32 825.902 1143.32 801.5Z" fill="url(#paint5_linear_42_2)"/>
<path opacity="0.05" d="M937 326.5C937 309.655 923.345 296 906.5 296C889.655 296 876 309.655 876 326.5C876 343.345 889.655 357 906.5 357C923.345 357 937 343.345 937 326.5ZM887.11 326.5C887.11 315.791 895.791 307.11 906.5 307.11C917.209 307.11 925.89 315.791 925.89 326.5C925.89 337.209 917.209 345.89 906.5 345.89C895.791 345.89 887.11 337.209 887.11 326.5Z" fill="url(#paint6_linear_42_2)"/>
<path opacity="0.05" d="M439 780.5C439 773.044 432.956 767 425.5 767C418.044 767 412 773.044 412 780.5C412 787.956 418.044 794 425.5 794C432.956 794 439 787.956 439 780.5ZM416.918 780.5C416.918 775.76 420.76 771.918 425.5 771.918C430.24 771.918 434.082 775.76 434.082 780.5C434.082 785.24 430.24 789.082 425.5 789.082C420.76 789.082 416.918 785.24 416.918 780.5Z" fill="url(#paint7_linear_42_2)"/>
<path opacity="0.05" d="M745 1390C745 1338.64 703.362 1297 652 1297C600.638 1297 559 1338.64 559 1390C559 1441.36 600.638 1483 652 1483C703.362 1483 745 1441.36 745 1390ZM592.877 1390C592.877 1357.35 619.347 1330.88 652 1330.88C684.653 1330.88 711.123 1357.35 711.123 1390C711.123 1422.65 684.653 1449.12 652 1449.12C619.347 1449.12 592.877 1422.65 592.877 1390Z" fill="url(#paint8_linear_42_2)"/>
<path opacity="0.05" d="M1142 1405C1142 1383.46 1124.54 1366 1103 1366C1081.46 1366 1064 1383.46 1064 1405C1064 1426.54 1081.46 1444 1103 1444C1124.54 1444 1142 1426.54 1142 1405ZM1078.21 1405C1078.21 1391.31 1089.31 1380.21 1103 1380.21C1116.69 1380.21 1127.79 1391.31 1127.79 1405C1127.79 1418.69 1116.69 1429.79 1103 1429.79C1089.31 1429.79 1078.21 1418.69 1078.21 1405Z" fill="url(#paint9_linear_42_2)"/>
<path opacity="0.05" d="M123 2010C123 1988.46 105.539 1971 84 1971C62.4609 1971 45 1988.46 45 2010C45 2031.54 62.4609 2049 84 2049C105.539 2049 123 2031.54 123 2010ZM59.2066 2010C59.2066 1996.31 70.307 1985.21 84 1985.21C97.693 1985.21 108.793 1996.31 108.793 2010C108.793 2023.69 97.693 2034.79 84 2034.79C70.307 2034.79 59.2066 2023.69 59.2066 2010Z" fill="url(#paint10_linear_42_2)"/>
<path opacity="0.05" d="M48 2088C48 2066.46 30.5391 2049 9 2049C-12.5391 2049 -30 2066.46 -30 2088C-30 2109.54 -12.5391 2127 9 2127C30.5391 2127 48 2109.54 48 2088ZM-15.7934 2088C-15.7934 2074.31 -4.69304 2063.21 9 2063.21C22.693 2063.21 33.7934 2074.31 33.7934 2088C33.7934 2101.69 22.693 2112.79 9 2112.79C-4.69304 2112.79 -15.7934 2101.69 -15.7934 2088Z" fill="url(#paint11_linear_42_2)"/>
<path opacity="0.05" d="M1432 2021C1432 1969.64 1390.36 1928 1339 1928C1287.64 1928 1246 1969.64 1246 2021C1246 2072.36 1287.64 2114 1339 2114C1390.36 2114 1432 2072.36 1432 2021ZM1279.88 2021C1279.88 1988.35 1306.35 1961.88 1339 1961.88C1371.65 1961.88 1398.12 1988.35 1398.12 2021C1398.12 2053.65 1371.65 2080.12 1339 2080.12C1306.35 2080.12 1279.88 2053.65 1279.88 2021Z" fill="url(#paint12_linear_42_2)"/>
<path opacity="0.05" d="M914 251C914 232.222 898.778 217 880 217C861.222 217 846 232.222 846 251C846 269.778 861.222 285 880 285C898.778 285 914 269.778 914 251ZM858.385 251C858.385 239.062 868.062 229.385 880 229.385C891.938 229.385 901.615 239.062 901.615 251C901.615 262.938 891.938 272.615 880 272.615C868.062 272.615 858.385 262.938 858.385 251Z" fill="url(#paint13_linear_42_2)"/>
<path opacity="0.05" d="M429 747C429 738.716 422.284 732 414 732C405.716 732 399 738.716 399 747C399 755.284 405.716 762 414 762C422.284 762 429 755.284 429 747ZM404.464 747C404.464 741.733 408.733 737.464 414 737.464C419.267 737.464 423.536 741.733 423.536 747C423.536 752.267 419.267 756.536 414 756.536C408.733 756.536 404.464 752.267 404.464 747Z" fill="url(#paint14_linear_42_2)"/>
<path opacity="0.05" d="M676 1160C676 1103.11 629.885 1057 573 1057C516.115 1057 470 1103.11 470 1160C470 1216.89 516.115 1263 573 1263C629.885 1263 676 1216.89 676 1160ZM507.52 1160C507.52 1123.84 536.836 1094.52 573 1094.52C609.164 1094.52 638.48 1123.84 638.48 1160C638.48 1196.16 609.164 1225.48 573 1225.48C536.836 1225.48 507.52 1196.16 507.52 1160Z" fill="url(#paint15_linear_42_2)"/>
<path opacity="0.05" d="M1363 1791C1363 1734.11 1316.89 1688 1260 1688C1203.11 1688 1157 1734.11 1157 1791C1157 1847.89 1203.11 1894 1260 1894C1316.89 1894 1363 1847.89 1363 1791ZM1194.52 1791C1194.52 1754.84 1223.84 1725.52 1260 1725.52C1296.16 1725.52 1325.48 1754.84 1325.48 1791C1325.48 1827.16 1296.16 1856.48 1260 1856.48C1223.84 1856.48 1194.52 1827.16 1194.52 1791Z" fill="url(#paint16_linear_42_2)"/>
<path opacity="0.05" d="M1310 732C1310 713.222 1294.78 698 1276 698C1257.22 698 1242 713.222 1242 732C1242 750.778 1257.22 766 1276 766C1294.78 766 1310 750.778 1310 732ZM1254.39 732C1254.39 720.062 1264.06 710.385 1276 710.385C1287.94 710.385 1297.61 720.062 1297.61 732C1297.61 743.938 1287.94 753.615 1276 753.615C1264.06 753.615 1254.39 743.938 1254.39 732Z" fill="url(#paint17_linear_42_2)"/>
</g>
<defs>
<linearGradient id="paint0_linear_42_2" x1="-74.3186" y1="-149" x2="438.779" y2="349.107" gradientUnits="userSpaceOnUse">
<stop stop-color="#2C3E50"/>
<stop offset="1" stop-color="#3498DB"/>
</linearGradient>
<linearGradient id="paint1_linear_42_2" x1="719.974" y1="390" x2="862.046" y2="252.078" gradientUnits="userSpaceOnUse">
<stop stop-color="#2C3E50"/>
<stop offset="1" stop-color="#3498DB"/>
</linearGradient>
<linearGradient id="paint2_linear_42_2" x1="343.111" y1="809" x2="406.442" y2="748.51" gradientUnits="userSpaceOnUse">
<stop stop-color="#2C3E50"/>
<stop offset="1" stop-color="#3498DB"/>
</linearGradient>
<linearGradient id="paint3_linear_42_2" x1="85.8915" y1="1586" x2="521.035" y2="1170.51" gradientUnits="userSpaceOnUse">
<stop stop-color="#2C3E50"/>
<stop offset="1" stop-color="#3498DB"/>
</linearGradient>
<linearGradient id="paint4_linear_42_2" x1="772.891" y1="2217" x2="1208.04" y2="1801.51" gradientUnits="userSpaceOnUse">
<stop stop-color="#2C3E50"/>
<stop offset="1" stop-color="#3498DB"/>
</linearGradient>
<linearGradient id="paint5_linear_42_2" x1="1115.97" y1="871" x2="1258.05" y2="733.078" gradientUnits="userSpaceOnUse">
<stop stop-color="#2C3E50"/>
<stop offset="1" stop-color="#3498DB"/>
</linearGradient>
<linearGradient id="paint6_linear_42_2" x1="875.111" y1="357" x2="937.459" y2="296.473" gradientUnits="userSpaceOnUse">
<stop stop-color="#2C3E50"/>
<stop offset="1" stop-color="#3498DB"/>
</linearGradient>
<linearGradient id="paint7_linear_42_2" x1="411.606" y1="794" x2="439.203" y2="767.209" gradientUnits="userSpaceOnUse">
<stop stop-color="#2C3E50"/>
<stop offset="1" stop-color="#3498DB"/>
</linearGradient>
<linearGradient id="paint8_linear_42_2" x1="556.288" y1="1483" x2="746.4" y2="1298.44" gradientUnits="userSpaceOnUse">
<stop stop-color="#2C3E50"/>
<stop offset="1" stop-color="#3498DB"/>
</linearGradient>
<linearGradient id="paint9_linear_42_2" x1="1062.86" y1="1444" x2="1142.59" y2="1366.6" gradientUnits="userSpaceOnUse">
<stop stop-color="#2C3E50"/>
<stop offset="1" stop-color="#3498DB"/>
</linearGradient>
<linearGradient id="paint10_linear_42_2" x1="43.8629" y1="2049" x2="123.587" y2="1971.6" gradientUnits="userSpaceOnUse">
<stop stop-color="#2C3E50"/>
<stop offset="1" stop-color="#3498DB"/>
</linearGradient>
<linearGradient id="paint11_linear_42_2" x1="-31.1371" y1="2127" x2="48.5871" y2="2049.6" gradientUnits="userSpaceOnUse">
<stop stop-color="#2C3E50"/>
<stop offset="1" stop-color="#3498DB"/>
</linearGradient>
<linearGradient id="paint12_linear_42_2" x1="1243.29" y1="2114" x2="1433.4" y2="1929.44" gradientUnits="userSpaceOnUse">
<stop stop-color="#2C3E50"/>
<stop offset="1" stop-color="#3498DB"/>
</linearGradient>
<linearGradient id="paint13_linear_42_2" x1="845.009" y1="285" x2="914.512" y2="217.527" gradientUnits="userSpaceOnUse">
<stop stop-color="#2C3E50"/>
<stop offset="1" stop-color="#3498DB"/>
</linearGradient>
<linearGradient id="paint14_linear_42_2" x1="398.563" y1="762" x2="429.226" y2="732.233" gradientUnits="userSpaceOnUse">
<stop stop-color="#2C3E50"/>
<stop offset="1" stop-color="#3498DB"/>
</linearGradient>
<linearGradient id="paint15_linear_42_2" x1="466.997" y1="1263" x2="677.551" y2="1058.6" gradientUnits="userSpaceOnUse">
<stop stop-color="#2C3E50"/>
<stop offset="1" stop-color="#3498DB"/>
</linearGradient>
<linearGradient id="paint16_linear_42_2" x1="1154" y1="1894" x2="1364.55" y2="1689.6" gradientUnits="userSpaceOnUse">
<stop stop-color="#2C3E50"/>
<stop offset="1" stop-color="#3498DB"/>
</linearGradient>
<linearGradient id="paint17_linear_42_2" x1="1241.01" y1="766" x2="1310.51" y2="698.527" gradientUnits="userSpaceOnUse">
<stop stop-color="#2C3E50"/>
<stop offset="1" stop-color="#3498DB"/>
</linearGradient>
<clipPath id="clip0_42_2">
<rect width="1280" height="2561" fill="white"/>
</clipPath>
</defs>
</svg>
