<svg width="437" height="315" viewBox="0 0 437 315" fill="none" xmlns="http://www.w3.org/2000/svg">
<g clip-path="url(#clip0_1_17)">
<g opacity="0.5">
<path d="M431.363 146.854H389.145C386.032 146.854 383.509 149.379 383.509 152.494V194.734C383.509 197.848 386.032 200.373 389.145 200.373H431.363C434.476 200.373 437 197.848 437 194.734V152.494C437 149.379 434.476 146.854 431.363 146.854Z" fill="#D0D2D5"/>
<path opacity="0.1" d="M402.67 162.235H417.839C417.839 162.235 430.613 173.418 417.839 185H402.67C402.67 185 389.896 174.616 402.67 162.235Z" fill="black"/>
<path d="M406.262 168.621H404.267V174.612H406.262V168.621Z" fill="#3F3D56"/>
<path d="M416.242 167.822H414.246V175.012H416.242V167.822Z" fill="#3F3D56"/>
<path d="M410.254 178.207C410.89 178.207 411.499 178.459 411.948 178.909C412.397 179.358 412.649 179.968 412.649 180.603V182.6H407.859V180.603C407.859 179.968 408.112 179.358 408.561 178.909C409.01 178.459 409.619 178.207 410.254 178.207Z" fill="#3F3D56"/>
</g>
<path d="M248.204 95.2401C249.469 95.2121 250.731 95.308 251.992 95.2401C253.146 95.1842 254.291 94.9964 255.445 94.8806C257.417 94.6849 259.405 94.7009 261.385 94.617C262.686 94.5611 264.059 94.4333 265.113 93.6665C266.103 92.9515 266.654 91.7853 267.536 90.9386C271.129 87.4838 273.592 82.8628 276.786 79.0286C277.584 78.054 278.418 77.0835 279.141 76.0411C280.526 74.0441 281.504 71.7795 282.478 69.5429C282.862 68.7137 283.182 67.8566 283.436 66.9788C283.616 66.2758 283.708 65.5489 283.947 64.862C284.442 63.4561 285.632 62.226 285.775 60.7442L285.608 60.7682C287.061 58.919 286.837 55.6958 287.556 53.3274C288.015 51.9207 288.571 50.5475 289.22 49.2176L291.891 43.3984C292.35 42.3999 292.829 41.3695 293.623 40.6026C294.585 39.672 295.927 39.2087 296.893 38.2821C297.467 37.7116 297.897 37.0118 298.146 36.2412L298.23 36.3211C298.741 36.8204 299.14 37.4314 299.639 37.9467C300.713 39.057 302.202 39.692 303.296 40.7824C303.855 41.3375 304.314 42.0125 304.988 42.4159C305.333 42.6042 305.728 42.6796 306.117 42.6316C306.507 42.5836 306.871 42.4146 307.16 42.1483C309.12 40.4229 312.042 40.2631 314.162 38.7414C314.748 38.3181 315.259 37.8029 315.81 37.3396C317.126 36.291 318.554 35.3934 320.07 34.6636C320.959 34.6781 321.843 34.8042 322.7 35.039C323.93 35.3785 325.131 35.9417 326.409 35.9177C327.549 35.8615 328.642 35.4416 329.526 34.7195C330.177 34.2163 330.772 33.5213 330.868 32.7225C330.892 32.3126 330.818 31.9027 330.651 31.5273C330.485 31.152 330.23 30.8222 329.91 30.5658C329.822 30.4899 329.73 30.422 329.638 30.3541C329.611 29.9957 329.512 29.6464 329.347 29.3273C329.181 29.0081 328.953 28.7257 328.676 28.4969C328.029 27.9903 327.29 27.6133 326.501 27.3866C326.061 27.2139 325.598 27.1088 325.127 27.0751C324.393 27.1151 323.671 27.2841 322.996 27.5743C321.637 28.012 320.236 28.3065 318.816 28.453C318.565 28.477 318.054 28.425 317.619 28.421L317.471 27.9977C315.81 28.7645 313.878 28.1335 312.058 28.1375C311.172 28.1375 310.289 28.2932 309.407 28.3492C308.43 28.3878 307.452 28.3665 306.477 28.2852L303.527 28.0975C302.267 28.0327 301.012 27.8994 299.767 27.6981C299.436 27.0232 299.104 26.3482 298.733 25.7012C298.108 24.6136 297.373 23.5925 296.541 22.6538C296.876 22.3658 297.228 22.099 297.595 21.855L297.667 21.811C297.759 21.7591 297.871 21.7032 297.994 21.6473C299.146 22.1951 300.417 22.4426 301.69 22.3667C302.962 22.2907 304.195 21.8939 305.273 21.213C306.351 20.5321 307.24 19.5894 307.856 18.4726C308.472 17.3558 308.795 16.1012 308.797 14.8256C309.015 14.7414 309.228 14.6441 309.435 14.534C309.555 14.4701 309.675 14.4022 309.79 14.3263L309.962 14.2105C310.071 14.1278 310.175 14.0384 310.274 13.9429C310.321 13.895 310.369 13.8471 310.413 13.7951C310.501 13.6917 310.577 13.5792 310.641 13.4597C310.665 13.4117 310.689 13.3678 310.709 13.3199C310.729 13.2719 310.709 13.2839 310.729 13.2639C310.749 13.244 310.757 13.1921 310.769 13.1601C310.78 13.1282 310.769 13.1122 310.788 13.0882L310.812 12.9924C310.814 12.9671 310.814 12.9417 310.812 12.9165C310.812 12.8845 310.812 12.8526 310.812 12.8246V12.7407C310.81 12.7115 310.81 12.6821 310.812 12.6529C310.814 12.6236 310.814 12.5943 310.812 12.565C310.812 12.537 310.812 12.5051 310.812 12.4771C310.814 12.4479 310.814 12.4185 310.812 12.3893V12.2814C310.814 12.2508 310.814 12.2202 310.812 12.1896C310.812 12.1616 310.812 12.1337 310.812 12.1057V12.0098V11.93C310.812 11.894 310.812 11.8581 310.812 11.8261C310.814 11.8022 310.814 11.7782 310.812 11.7542C310.815 11.717 310.815 11.6796 310.812 11.6424C310.812 11.6184 310.812 11.5985 310.812 11.5785C310.812 11.5585 310.812 11.4986 310.784 11.4587V11.4028L310.749 11.275V11.227C310.749 11.1831 310.721 11.1392 310.709 11.0952V11.0553L310.661 10.9115V10.8875C310.661 10.8196 310.617 10.7478 310.593 10.6799C310.293 9.81716 309.97 8.95845 309.627 8.11173C309.377 7.40319 309.001 6.74564 308.517 6.17067C307.811 5.4198 306.797 5.04437 305.95 4.44527C304.952 3.74234 304.206 2.74784 303.36 1.86118C302.513 0.974521 301.487 0.171733 300.27 0.0239563C299.303 -0.0324674 298.336 0.144224 297.452 0.539178C290.118 3.24709 284.115 8.58302 277.54 12.8166C274.981 14.4661 272.115 16.0118 269.085 15.8001L271.76 20.0497C271.888 20.2574 272.019 20.4491 272.159 20.6648C272.299 20.8804 272.438 21.0642 272.586 21.2639C272.963 21.7814 273.439 22.2186 273.987 22.5499C274.125 22.6303 274.27 22.6997 274.418 22.7576C274.549 22.8067 274.682 22.848 274.818 22.8814C275.772 23.1091 276.814 22.9174 277.78 22.7257C278.111 22.6617 278.442 22.5938 278.77 22.518L279.169 22.4061H279.233C279.233 22.4301 279.233 22.4501 279.233 22.47C279.009 22.8694 278.797 23.2329 278.61 23.6283C277.994 25.0595 277.516 26.5468 277.185 28.0696C276.43 31.065 275.672 34.1244 275.871 37.1998C275.939 38.2382 276.115 39.3006 275.816 40.2991C275.672 40.7904 275.416 41.2936 275.552 41.7809C275.694 42.0623 275.817 42.3532 275.919 42.6515C275.983 43.1148 275.616 43.5142 275.352 43.8977C275.089 44.2811 274.953 44.8922 275.329 45.1597C274.949 45.2929 274.614 45.5301 274.362 45.8443C274.11 46.1585 273.951 46.5371 273.903 46.9371C273.912 47.1722 273.865 47.406 273.768 47.62C273.656 47.7647 273.521 47.8901 273.369 47.9915C272.963 48.3318 272.697 48.8095 272.622 49.3334C271.852 49.3334 271.201 50.0843 270.498 50.5316C269.884 50.843 269.234 51.079 268.562 51.2346C266.634 51.8496 264.97 53.1157 263.465 54.4497C262.626 55.1806 261.78 55.9874 261.413 57.0338C261.293 57.3773 261.229 57.7367 261.125 58.0842C260.911 58.7571 260.599 59.3949 260.199 59.9774C259.434 61.156 258.491 62.2095 257.405 63.1006C256.855 63.5435 256.371 64.0627 255.968 64.6423C255.357 65.525 254.116 65.7886 253.461 66.6393C253.226 67.0583 252.959 67.4589 252.663 67.8375C252.156 68.3168 251.389 68.3567 250.743 68.6363C249.23 69.2633 248.531 71.0327 247.182 71.9672C247.107 72.0301 247.011 72.0617 246.914 72.0551C246.799 72.0551 246.731 71.9153 246.631 71.8474C246.435 71.7156 246.176 71.8155 245.944 71.8754C245.713 71.9353 245.401 71.9113 245.341 71.6797C242.088 69.7067 238.891 67.5659 235.633 65.5929L234.148 64.6942L226.204 59.8775C226.11 59.8187 226.002 59.7875 225.891 59.7875C225.78 59.7875 225.672 59.8187 225.578 59.8775L225.33 60.0493C224.931 59.6259 224.488 59.2505 224.224 58.9389C224.117 58.8151 224.009 58.6913 223.897 58.5715C223.97 58.5741 224.042 58.5605 224.109 58.5315C224.198 58.4831 224.265 58.4024 224.297 58.3059C224.329 58.2095 224.323 58.1045 224.28 58.0123C224.195 57.8303 224.07 57.6704 223.913 57.545C223.566 57.2083 223.247 56.8436 222.959 56.4547C222.649 55.9675 222.298 55.5078 221.909 55.0808C221.713 54.8671 221.471 54.7004 221.201 54.5932C220.932 54.486 220.642 54.4411 220.352 54.4617C220.031 54.5233 219.724 54.6467 219.45 54.8251C218.358 55.4598 217.352 56.2316 216.456 57.1217C216.417 57.15 216.384 57.1871 216.361 57.23C216.338 57.273 216.326 57.3207 216.324 57.3693C216.324 57.4492 216.404 57.5091 216.412 57.585C216.414 57.659 216.387 57.7308 216.336 57.7847C215.799 58.4519 215.162 59.0325 214.448 59.5061C213.434 60.2649 212.443 61.0531 211.474 61.8705C210.868 62.3018 210.388 62.888 210.085 63.5679C209.874 64.3566 209.961 65.1956 210.329 65.9244C210.991 67.486 212.153 68.7801 213.303 70.0302C213.491 70.2874 213.759 70.4755 214.065 70.5654C214.308 70.5989 214.555 70.5389 214.756 70.3976C215.462 69.9343 215.578 68.9758 215.63 68.137C215.65 67.7376 215.674 67.3702 215.698 66.9868C215.696 66.9099 215.711 66.8336 215.742 66.7631C215.803 66.676 215.887 66.6082 215.985 66.5674L217.083 65.9883C217.051 65.9364 217.015 65.8844 216.979 65.8325C217.807 65.5217 218.709 65.4633 219.57 65.6648C220.153 65.8365 220.688 66.184 221.246 66.3997C221.158 67.145 221.297 67.8998 221.646 68.5644C223.693 68.7761 225.538 69.6867 227.37 70.6053C228.847 71.3377 230.284 72.1497 231.673 73.0376C232.802 73.7725 233.906 74.5407 234.987 75.3421C236.519 76.4764 238 77.6786 239.465 78.8928C240.418 79.7336 241.442 80.4887 242.527 81.1494C245.409 82.7669 249.273 82.8228 251.92 80.8059C255.257 78.2617 259.505 76.9397 263.097 74.7391C264.165 74.1418 265.14 73.3924 265.991 72.5144C265.984 72.618 265.968 72.7209 265.944 72.8219C265.728 73.8164 264.87 74.5354 264.546 75.5418C264.295 76.3406 264.387 77.2632 263.9 77.9382C263.529 78.4534 262.834 78.8209 262.814 79.4559C262.814 79.6317 262.866 79.8074 262.866 79.9831C262.846 80.2056 262.78 80.4217 262.674 80.6182C262.275 81.5168 261.828 82.4594 261.01 83.0145C260.69 83.2342 260.283 83.4339 260.211 83.8133C260.207 83.9234 260.178 84.0311 260.127 84.1289C259.992 84.3166 259.692 84.2167 259.477 84.2966C259.177 84.4084 259.129 84.7959 259.01 85.0954C258.9 85.3442 258.715 85.5522 258.481 85.6898C258.247 85.8275 257.975 85.8878 257.704 85.8622C254.978 85.5307 252.299 86.7649 249.553 86.693C248.607 86.665 247.665 86.5692 246.715 86.5612C243.801 86.5372 240.946 87.36 238.14 88.1588C237.827 88.7115 237.634 89.3238 237.573 89.9561C236.614 90.2025 235.614 90.2406 234.639 90.0679C234.397 90.0201 234.151 89.9868 233.905 89.968C233.975 89.7878 233.997 89.5923 233.969 89.4009C232.822 89.7646 231.72 90.2563 230.683 90.8667C230.001 91.2661 229.278 91.8252 229.214 92.612C229.205 92.9154 229.248 93.2181 229.342 93.5067L229.713 94.9166C229.759 95.1775 229.873 95.4216 230.045 95.6235C230.168 95.7433 230.332 95.8152 230.444 95.943C230.552 96.094 230.626 96.2673 230.659 96.4502L230.971 97.6724C231.087 98.079 231.17 98.4944 231.218 98.9145C231.254 99.3139 231.218 99.6814 231.246 100.065C231.288 100.697 231.38 101.325 231.522 101.942L231.965 104.155C232.064 104.773 232.239 105.377 232.488 105.952C232.675 106.351 232.927 106.695 233.078 107.094C233.198 107.402 233.254 107.729 233.398 108.021C233.656 108.494 234.063 108.87 234.555 109.091C234.727 109.192 234.92 109.253 235.118 109.267C235.685 109.267 236.092 108.74 236.356 108.236C236.881 107.321 237.165 106.288 237.182 105.233C237.182 104.81 237.098 104.39 237.062 103.967C236.966 102.769 237.31 101.602 237.31 100.408C237.323 100.248 237.28 100.089 237.189 99.9561C237.098 99.8238 236.965 99.7267 236.811 99.6814C236.847 98.6669 236.843 97.5925 237.378 96.7258C237.643 96.3225 237.972 95.9651 238.352 95.6674C238.499 96.1387 238.663 96.606 238.847 97.0613C241.884 96.1747 245.022 95.3199 248.204 95.2401ZM313.108 33.9048C312.892 33.9846 312.673 34.0645 312.449 34.1364C310.589 34.7555 308.457 35.3586 306.533 34.9352C305.95 34.7668 305.401 34.4964 304.912 34.1364L304.773 34.0485C307.483 33.5733 310.313 33.6891 313.108 33.9048Z" fill="url(#paint0_linear_1_17)"/>
<path d="M323.91 29.795C324.582 29.5068 325.299 29.3405 326.029 29.3037C326.498 29.3393 326.958 29.4457 327.395 29.6192C328.183 29.8495 328.921 30.2292 329.566 30.7376C329.885 30.9955 330.139 31.3255 330.306 31.7003C330.473 32.0752 330.55 32.4843 330.528 32.8943C330.437 33.6931 329.846 34.384 329.199 34.8913C328.322 35.6126 327.236 36.0326 326.101 36.0895C324.832 36.1094 323.634 35.5383 322.409 35.1988C321.517 34.9465 320.597 34.8123 319.67 34.7994C319.204 34.8246 318.737 34.7951 318.277 34.7115C318.047 34.6681 317.83 34.5709 317.644 34.428C317.458 34.2851 317.309 34.1003 317.207 33.8888C317.092 33.4978 317.092 33.0816 317.207 32.6906C317.299 32.1953 317.283 31.0211 317.722 30.7256C318.074 30.4859 319.319 30.6776 319.75 30.6417C321.163 30.5078 322.557 30.2239 323.91 29.795Z" fill="#FBBEBE"/>
<path d="M295.412 21.7551C296.621 22.9383 297.662 24.2822 298.505 25.7491C299.911 28.2014 300.805 31.0531 302.92 32.9382C303.483 33.4117 304.079 33.8429 304.705 34.2283C305.194 34.588 305.743 34.8584 306.326 35.0271C308.226 35.4544 310.357 34.8593 312.21 34.2283C314.043 33.5699 315.822 32.7686 317.531 31.8319C317.543 32.6035 317.757 33.3584 318.154 34.0206C318.597 34.6476 319.503 35.0151 320.149 34.6197C318.512 35.3898 316.967 36.3452 315.547 37.4674C315 37.9307 314.493 38.4419 313.91 38.8613C311.806 40.375 308.896 40.5268 306.952 42.2442C306.664 42.5071 306.301 42.6734 305.914 42.7199C305.527 42.7665 305.135 42.6909 304.793 42.5038C304.118 42.1044 303.659 41.4174 303.104 40.8623C302.01 39.7679 300.525 39.1289 299.452 38.0146C298.953 37.4993 298.553 36.8883 298.042 36.385C297.312 35.6661 296.362 35.1868 295.691 34.388C295.192 33.8009 294.893 33.086 294.426 32.459C294.027 31.9158 293.556 31.4405 293.2 30.8614C292.33 29.4755 292.338 27.6662 292.837 26.1125C293.336 24.5589 294.482 23.1091 295.412 21.7551Z" fill="#F86D70"/>
<path opacity="0.1" d="M295.412 21.7551C296.621 22.9383 297.662 24.2822 298.505 25.7491C299.911 28.2014 300.805 31.0531 302.92 32.9382C303.483 33.4117 304.079 33.8429 304.705 34.2283C305.194 34.588 305.743 34.8584 306.326 35.0271C308.226 35.4544 310.357 34.8593 312.21 34.2283C314.043 33.5699 315.822 32.7686 317.531 31.8319C317.543 32.6035 317.757 33.3584 318.154 34.0206C318.597 34.6476 319.503 35.0151 320.149 34.6197C318.512 35.3898 316.967 36.3452 315.547 37.4674C315 37.9307 314.493 38.4419 313.91 38.8613C311.806 40.375 308.896 40.5268 306.952 42.2442C306.664 42.5071 306.301 42.6734 305.914 42.7199C305.527 42.7665 305.135 42.6909 304.793 42.5038C304.118 42.1044 303.659 41.4174 303.104 40.8623C302.01 39.7679 300.525 39.1289 299.452 38.0146C298.953 37.4993 298.553 36.8883 298.042 36.385C297.312 35.6661 296.362 35.1868 295.691 34.388C295.192 33.8009 294.893 33.086 294.426 32.459C294.027 31.9158 293.556 31.4405 293.2 30.8614C292.33 29.4755 292.338 27.6662 292.837 26.1125C293.336 24.5589 294.482 23.1091 295.412 21.7551Z" fill="black"/>
<path d="M224.464 58.6394C224.155 58.2333 223.773 57.888 223.338 57.6209C222.677 57.3277 221.941 57.2522 221.234 57.4053C219.454 57.6768 217.801 58.4916 216.237 59.4022C214.975 60.1251 213.722 60.9279 212.82 62.0662C212.522 62.4094 212.315 62.8211 212.217 63.2644C212.165 63.6301 212.197 64.0028 212.309 64.3548C212.389 64.7511 212.559 65.1236 212.806 65.4436C213.053 65.7636 213.371 66.0224 213.734 66.2C214.568 66.5275 215.498 66.18 216.336 65.8605C217.462 65.4251 218.7 65.0217 219.857 65.3652C220.716 65.6208 221.454 66.2719 222.36 66.2958C223.426 66.3278 224.288 65.4651 224.967 64.6423C225.554 63.9234 226.839 62.6254 226.755 61.6149C226.671 60.6044 225.095 59.3623 224.464 58.6394Z" fill="#FBBEBE"/>
<path d="M237.917 89.7244C236.94 89.9848 235.918 90.0271 234.923 89.8482C234.316 89.7364 233.573 89.5926 233.186 90.0679C233.061 90.244 232.978 90.4461 232.943 90.659C231.949 94.7289 232.859 99.0463 234.539 102.901C234.561 102.966 234.599 103.024 234.651 103.068C234.759 103.148 234.907 103.092 235.03 103.04C235.437 102.877 235.818 102.655 236.16 102.381C236.927 101.686 237.09 100.556 237.126 99.5216C237.162 98.4872 237.146 97.3928 237.681 96.5062C238.352 95.4078 239.753 94.8726 240.304 93.7104C240.747 92.7638 240.515 91.6415 240.124 90.675C239.992 90.3395 239.94 89.4768 239.629 89.313C239.318 89.1493 238.272 89.6286 237.917 89.7244Z" fill="#FBBEBE"/>
<path d="M224.348 58.232C224.437 58.1829 224.503 58.1019 224.534 58.0055C224.565 57.9091 224.559 57.8045 224.516 57.7128C224.43 57.5302 224.305 57.3692 224.149 57.2415C223.8 56.9053 223.482 56.5391 223.198 56.1472C222.885 55.6624 222.534 55.2031 222.149 54.7732C221.953 54.5598 221.712 54.393 221.443 54.2852C221.174 54.1774 220.885 54.1312 220.596 54.1502C220.275 54.2076 219.969 54.3299 219.698 54.5096C218.612 55.1393 217.612 55.9072 216.724 56.7942C216.656 56.8621 216.58 56.9459 216.596 57.0418C216.612 57.1377 216.676 57.1776 216.684 57.2575C216.686 57.3296 216.66 57.3999 216.612 57.4532C216.079 58.1177 215.446 58.6957 214.736 59.1666C213.73 59.9228 212.745 60.7083 211.782 61.523C211.179 61.952 210.703 62.5357 210.404 63.2125C210.2 64.0012 210.29 64.8372 210.656 65.5649C211.323 67.1306 212.484 68.4246 213.63 69.6827C213.822 69.9392 214.09 70.1281 214.396 70.2219C214.638 70.2548 214.883 70.1948 215.083 70.0541C215.782 69.5948 215.881 68.6363 215.941 67.8015L216.005 66.6473C216.003 66.5717 216.018 66.4967 216.049 66.4276C216.109 66.3398 216.194 66.2717 216.292 66.2319L217.378 65.6568C217.046 65.1165 216.574 64.6766 216.011 64.3839C215.449 64.0913 214.818 63.957 214.185 63.9953C213.896 64.0641 213.591 64.0228 213.33 63.8795C213.205 63.7485 213.134 63.5739 213.134 63.3922C213.134 63.2105 213.205 63.0359 213.33 62.9049C213.595 62.6533 213.919 62.4732 214.273 62.3817C217.135 61.3313 219.722 59.6459 222.5 58.3878C222.804 58.2337 223.141 58.1556 223.482 58.1601C223.761 58.1801 224.089 58.3438 224.348 58.232Z" fill="#F86D70"/>
<path d="M235.625 100.057C235.497 100.296 235.454 100.576 235.314 100.812C235.174 101.047 234.871 101.211 234.635 101.091C234.511 101.004 234.419 100.88 234.372 100.736C233.161 97.9658 232.82 94.8933 233.394 91.9251C233.473 91.4396 233.617 90.9669 233.821 90.5192C234.032 90.0879 234.34 89.6485 234.252 89.1772C233.112 89.5369 232.017 90.0246 230.987 90.631C230.308 91.0304 229.593 91.5856 229.53 92.3684C229.524 92.6719 229.568 92.9742 229.661 93.2631L230.037 94.6729C230.082 94.9348 230.198 95.1792 230.372 95.3799C230.492 95.4997 230.655 95.5756 230.771 95.7034C230.881 95.8522 230.955 96.0245 230.987 96.2066L231.302 97.4288C231.419 97.8366 231.504 98.2534 231.553 98.6749C231.589 99.0743 231.553 99.4417 231.585 99.8251C231.631 100.456 231.724 101.082 231.865 101.698L232.316 103.911C232.418 104.529 232.595 105.133 232.843 105.708C233.03 106.108 233.282 106.451 233.438 106.855C233.553 107.162 233.613 107.49 233.757 107.781C234.016 108.254 234.421 108.631 234.911 108.856C235.083 108.956 235.275 109.018 235.474 109.035C236.036 109.055 236.44 108.508 236.703 108.005C237.218 107.09 237.492 106.059 237.501 105.009C237.501 104.586 237.414 104.167 237.378 103.743C237.278 102.545 237.613 101.383 237.609 100.189C237.617 99.0703 236.036 99.282 235.625 100.057Z" fill="#F86D70"/>
<path d="M294.194 30.47C292.95 29.8973 291.857 29.0427 291.001 27.9737C290.56 27.4101 290.16 26.8162 289.803 26.1964C288.287 23.6364 286.985 20.9553 285.911 18.1805C287.612 18.528 289.396 18.8435 291.069 18.3642C291.941 18.0982 292.754 17.667 293.464 17.0942C294.373 16.346 295.217 15.5216 295.987 14.6299C296.568 15.7451 297.235 16.8134 297.983 17.8251C298.41 18.4002 299.855 19.5704 299.747 20.3532C299.639 21.1361 298.042 21.5275 297.396 21.8989L297.328 21.9428C296.374 22.546 295.541 23.3221 294.873 24.2314C293.619 26.0127 293.184 28.4969 294.194 30.47Z" fill="#FBBEBE"/>
<path opacity="0.1" d="M297.428 21.8829C296.468 21.4115 295.62 20.7398 294.942 19.9131C294.264 19.0864 293.771 18.1238 293.496 17.0902C294.405 16.342 295.249 15.5176 296.018 14.6259C296.6 15.7411 297.267 16.8094 298.014 17.8211C298.442 18.3962 299.887 19.5664 299.779 20.3493C299.671 21.1321 298.074 21.5115 297.428 21.8829Z" fill="black"/>
<path d="M301.02 22.47C305.15 22.47 308.497 19.1208 308.497 14.9893C308.497 10.8579 305.15 7.50865 301.02 7.50865C296.891 7.50865 293.543 10.8579 293.543 14.9893C293.543 19.1208 296.891 22.47 301.02 22.47Z" fill="#FBBEBE"/>
<path d="M284.666 61.5869C284.148 61.8974 283.559 62.0683 282.956 62.083C282.353 62.0977 281.756 61.9557 281.225 61.6708C280.671 61.3293 280.17 60.9081 279.74 60.4207C277.285 57.9005 274.949 55.2285 273.309 52.1013C272.927 51.4414 272.68 50.7124 272.582 49.9565C272.536 49.5787 272.582 49.1954 272.716 48.8393C272.85 48.4832 273.069 48.1649 273.353 47.9116C273.505 47.8106 273.64 47.6851 273.752 47.5402C273.848 47.3272 273.893 47.0947 273.883 46.8612C273.928 46.4628 274.084 46.0851 274.334 45.772C274.584 45.4588 274.918 45.223 275.297 45.0919C274.897 44.8203 275.057 44.2172 275.317 43.8298C275.576 43.4423 275.939 43.031 275.875 42.5837C275.773 42.2853 275.65 41.9944 275.508 41.713C275.364 41.2257 275.624 40.7225 275.764 40.2352C276.055 39.2367 275.879 38.1743 275.808 37.1359C275.596 34.0605 276.342 31.0091 277.081 28.0177C277.408 26.4986 277.878 25.0141 278.486 23.5844C278.674 23.185 278.885 22.7856 279.101 22.4301C279.855 21.2078 280.694 20.0401 281.612 18.9354C282.041 18.2855 282.631 17.7573 283.324 17.4017C283.389 17.3736 283.456 17.3496 283.524 17.3298C284.021 17.2013 284.538 17.162 285.049 17.214C286.398 17.2979 287.815 17.6134 288.777 18.5639C289.739 19.5145 290.051 20.8485 290.486 22.1346C290.624 22.565 290.792 22.9853 290.989 23.3926C291.623 24.6547 292.657 25.6612 293.675 26.6397L294.781 27.7061C295.336 28.2413 296.298 28.1055 296.821 28.6687C297.034 28.9333 297.192 29.2373 297.288 29.5633C297.879 31.0039 298.223 32.5336 298.306 34.0885C298.31 34.4343 298.29 34.7799 298.246 35.1229C298.111 36.3266 297.578 37.4509 296.733 38.3181C295.775 39.2407 294.442 39.696 293.488 40.6226C292.689 41.3895 292.226 42.4159 291.771 43.4184C290.893 45.3515 290.013 47.2872 289.132 49.2256C288.495 50.552 287.947 51.9196 287.492 53.3194C286.661 56.1112 287.133 60.0493 284.666 61.5869Z" fill="#F86D70"/>
<path d="M261.612 94.4972C259.64 94.5771 257.664 94.5531 255.7 94.7408C254.555 94.8527 253.413 95.0404 252.263 95.0883C251.01 95.1442 249.753 95.0444 248.495 95.0684C245.329 95.1362 242.208 95.979 239.162 96.8497C238.302 94.7486 237.854 92.5019 237.841 90.2317C237.833 90.0813 237.833 89.9307 237.841 89.7803C237.896 89.1375 238.088 88.5139 238.404 87.9511C241.198 87.1523 244.032 86.3535 246.934 86.3935C247.88 86.3935 248.818 86.5053 249.76 86.5332C252.495 86.6171 255.154 85.391 257.868 85.7345C258.137 85.7611 258.408 85.7015 258.641 85.5645C258.874 85.4274 259.058 85.2198 259.165 84.9716C259.281 84.6761 259.329 84.2886 259.628 84.1728C259.844 84.0929 260.139 84.1928 260.275 84.0091C260.323 83.9104 260.352 83.8032 260.359 83.6935C260.439 83.2941 260.842 83.1144 261.157 82.8948C261.956 82.3436 262.407 81.401 262.806 80.4984C262.911 80.303 262.975 80.0883 262.994 79.8673C262.994 79.6916 262.938 79.5159 262.942 79.3361C262.942 78.7051 263.648 78.3416 264.016 77.8264C264.499 77.1474 264.415 76.2288 264.65 75.43C264.97 74.4235 265.82 73.7086 266.031 72.7181C266.055 72.617 266.071 72.5142 266.079 72.4106C265.233 73.2843 264.263 74.0297 263.201 74.6232C259.656 76.8079 255.417 78.114 252.108 80.6421C249.481 82.6391 245.633 82.5792 242.759 80.9537C241.675 80.2902 240.652 79.5324 239.701 78.6891C238.24 77.4909 236.763 76.2648 235.234 75.1225C234.169 74.3237 233.066 73.5529 231.925 72.81C230.542 71.8952 229.111 71.0565 227.637 70.2978C225.809 69.3712 223.969 68.4526 221.933 68.2329C221.671 67.6984 221.526 67.1144 221.507 66.5195C221.488 65.9246 221.595 65.3325 221.821 64.7821C222.286 63.6874 222.916 62.6704 223.689 61.7667C224.268 60.9177 224.993 60.178 225.829 59.582C225.922 59.5231 226.03 59.4918 226.14 59.4918C226.251 59.4918 226.359 59.5231 226.452 59.582L234.364 64.4426L235.845 65.3493C239.09 67.3462 242.284 69.483 245.529 71.468C245.589 71.6957 245.904 71.7236 246.132 71.6637C246.359 71.6038 246.619 71.508 246.814 71.6398C246.91 71.7037 246.978 71.8235 247.098 71.8474C247.193 71.8506 247.287 71.8195 247.361 71.7596C248.703 70.837 249.389 69.0636 250.894 68.4446C251.537 68.181 252.299 68.141 252.802 67.6458C253.1 67.2682 253.367 66.8675 253.601 66.4476C254.251 65.5969 255.485 65.3413 256.088 64.4506C256.487 63.8738 256.967 63.3573 257.513 62.9169C258.6 62.0312 259.543 60.9816 260.307 59.8056C260.702 59.2251 261.01 58.59 261.221 57.9205C261.325 57.573 261.389 57.2135 261.505 56.8701C261.868 55.8236 262.702 55.0209 263.536 54.294C265.049 52.968 266.682 51.7099 268.598 51.0988C269.267 50.944 269.914 50.7093 270.526 50.3998C271.297 49.9286 272.003 49.0539 272.885 49.2576C273.22 49.3613 273.522 49.5514 273.76 49.8087C274.842 50.8617 275.836 52.001 276.734 53.2156C278.157 55.0289 279.58 56.8434 281.001 58.6594C281.449 59.3123 282.017 59.8747 282.674 60.3169C283.627 60.8075 284.721 60.9488 285.767 60.7163C285.628 62.198 284.45 63.4202 283.963 64.826C283.727 65.509 283.636 66.2359 283.46 66.9349C283.213 67.8119 282.896 68.6679 282.514 69.495C281.556 71.7276 280.59 73.9722 279.217 75.9772C278.506 77.0196 277.688 77.9742 276.885 78.9527C273.72 82.7749 271.297 87.384 267.704 90.8228C266.834 91.6655 266.283 92.8197 265.309 93.5427C264.251 94.3255 262.886 94.4453 261.612 94.4972Z" fill="#434175"/>
<path opacity="0.1" d="M276.654 43.8218C276.302 43.839 275.959 43.9418 275.656 44.1213C276.386 43.8657 277.277 44.5487 277.951 44.2252C278.267 44.0734 278.219 44.0295 277.951 43.9376C277.548 43.8018 277.061 43.9256 276.654 43.8218Z" fill="black"/>
<path d="M402.679 175.806L373.338 186.23L375.208 191.5L404.55 181.075L402.679 175.806Z" fill="#D0D2D5"/>
<path d="M383.153 197.157L409.862 187.668C410.56 187.42 411.328 187.459 411.998 187.778C412.667 188.097 413.182 188.668 413.43 189.367C413.678 190.066 413.638 190.834 413.32 191.504C413.001 192.173 412.43 192.689 411.732 192.937L385.023 202.426L383.153 197.157Z" fill="#D0D2D5"/>
<path d="M357.708 180.766L364.216 178.454C370.002 176.398 376.368 176.726 381.913 179.366C387.458 182.007 391.727 186.742 393.782 192.532L396.093 199.043C396.896 201.307 396.768 203.798 395.736 205.967C394.704 208.136 392.853 209.806 390.591 210.61L370.796 217.643C368.534 218.447 366.044 218.319 363.876 217.286C361.708 216.254 360.038 214.402 359.235 212.138L352.206 192.333C351.402 190.069 351.531 187.579 352.563 185.41C353.594 183.24 355.445 181.57 357.708 180.766Z" fill="#3F3D56"/>
<path opacity="0.1" d="M276.295 47.7199C276.024 47.6249 275.732 47.6069 275.452 47.668C275.034 47.7124 274.645 47.9034 274.354 48.2072C274.432 48.2419 274.515 48.2598 274.6 48.2598C274.685 48.2598 274.768 48.2419 274.846 48.2072C275.106 48.141 275.375 48.1114 275.644 48.1193C275.875 48.1193 276.566 48.3749 276.746 48.2631C277.009 48.0913 276.474 47.7878 276.295 47.7199Z" fill="black"/>
<path opacity="0.1" d="M298.246 35.1229C297.645 34.9196 297.071 34.6433 296.537 34.3002C295.136 33.4095 293.959 32.1993 292.573 31.2887C291.874 30.849 291.15 30.449 290.406 30.0905L285.731 27.6941C285.375 27.4913 284.994 27.3356 284.598 27.2309C283.835 27.0631 282.977 27.5743 282.203 27.4665C281.801 27.3927 281.42 27.2346 281.084 27.0025C280.748 26.7705 280.466 26.4699 280.255 26.1205C279.832 25.4225 279.535 24.6561 279.376 23.8559C279.257 23.3841 279.168 22.9052 279.109 22.4221C279.04 21.9204 279.03 21.4123 279.081 20.9084C279.161 19.9076 279.635 18.9796 280.398 18.3283C280.953 17.9345 281.584 17.6623 282.25 17.5295C282.671 17.4231 283.1 17.3523 283.532 17.3178C283.778 17.2979 284.025 17.2979 284.27 17.3178C286.035 17.4576 287.528 18.6558 288.705 19.9738C289.324 20.6688 289.903 21.4156 290.494 22.1226C290.632 22.553 290.8 22.9734 290.997 23.3807C291.631 24.6428 292.665 25.6492 293.683 26.6278L294.789 27.6941C295.344 28.2293 296.306 28.0935 296.829 28.6567C297.042 28.9214 297.2 29.2253 297.296 29.5513C297.885 30.9962 298.227 32.5301 298.306 34.0885C298.31 34.4343 298.29 34.7799 298.246 35.1229Z" fill="black"/>
<path opacity="0.1" d="M261.892 86.2377L237.837 89.7803C237.892 89.1375 238.084 88.5139 238.4 87.9511C241.194 87.1523 244.028 86.3535 246.93 86.3934C247.876 86.3934 248.814 86.5053 249.757 86.5332C252.491 86.6171 255.15 85.391 257.864 85.7344C258.133 85.7611 258.404 85.7015 258.637 85.5644C258.87 85.4274 259.054 85.2198 259.161 84.9716C259.277 84.676 259.325 84.2886 259.624 84.1728C259.84 84.0929 260.135 84.1928 260.271 84.009C260.319 83.9104 260.348 83.8032 260.355 83.6935C260.435 83.2941 260.838 83.1144 261.153 82.8947C261.952 82.3436 262.403 81.401 262.802 80.4984C262.907 80.303 262.971 80.0883 262.99 79.8673C262.99 79.6916 262.934 79.5158 262.938 79.3361C262.938 78.7051 263.644 78.3416 264.012 77.8264C264.495 77.1474 264.411 76.2288 264.646 75.43C264.966 74.4235 265.816 73.7086 266.027 72.7181L266.131 72.5823L270.227 70.9847L261.892 86.2377Z" fill="black"/>
<path opacity="0.1" d="M169.655 280.245C263.353 280.245 339.311 274.344 339.311 267.064C339.311 259.785 263.353 253.884 169.655 253.884C75.9572 253.884 0 259.785 0 267.064C0 274.344 75.9572 280.245 169.655 280.245Z" fill="#0F659A"/>
<path opacity="0.1" d="M319.639 315C380.267 315 429.415 308.604 429.415 300.714C429.415 292.823 380.267 286.427 319.639 286.427C259.01 286.427 209.862 292.823 209.862 300.714C209.862 308.604 259.01 315 319.639 315Z" fill="#0F659A"/>
<path d="M189.714 256.393L189.826 250.737C195.149 250.434 200.471 250.231 205.794 250.13C208.884 250.074 212.013 250.054 215.003 250.829C217.075 251.368 219.035 252.279 221.079 252.918C225.15 254.188 229.462 254.356 233.737 254.471C237.885 254.587 242.216 254.627 245.94 252.794C252.387 249.599 255.098 241.751 255.413 234.566C255.728 227.38 254.299 220.139 255.293 212.998" stroke="#3F3D56" stroke-width="12" stroke-miterlimit="10"/>
<path d="M204.309 267.46L133.177 266.549L133.385 264.724L136.826 234.613H199.291L203.89 264.724L204.241 267.005L204.309 267.46Z" fill="#D0D2D5"/>
<path opacity="0.1" d="M204.241 267.005H168.741L133.177 266.549L133.385 264.724H203.89L204.241 267.005Z" fill="black"/>
<path d="M215.71 265.179H121.321V267.46H215.71V265.179Z" fill="#D0D2D5"/>
<path d="M305.763 53.7668C305.77 52.9848 305.622 52.2092 305.328 51.4845C305.035 50.7598 304.601 50.1001 304.052 49.5435C303.503 48.9869 302.85 48.5442 302.13 48.2408C301.409 47.9375 300.636 47.7795 299.855 47.7758H36.2623C35.4809 47.78 34.708 47.9384 33.9879 48.2419C33.2678 48.5454 32.6146 48.9882 32.0658 49.5447C31.517 50.1012 31.0833 50.7606 30.7896 51.4851C30.4959 52.2096 30.348 52.985 30.3543 53.7668V213.629H305.763V53.7668Z" fill="#3F3D56"/>
<path d="M30.3543 212.032V230.759C30.3543 232.327 30.9768 233.831 32.0847 234.939C33.1927 236.048 34.6954 236.67 36.2623 236.67H299.855C301.422 236.67 302.924 236.048 304.032 234.939C305.14 233.831 305.763 232.327 305.763 230.759V212.032H30.3543Z" fill="#D0D2D5"/>
<path d="M295.731 57.8326H41.7552V201.539H295.731V57.8326Z" fill="#2F2E41"/>
<path d="M169.428 229.565C170.36 229.565 171.28 229.354 172.119 228.946C172.958 228.539 173.693 227.946 174.27 227.213C174.446 226.988 174.606 226.752 174.749 226.506L171.372 225.951L175.024 225.979C175.375 225.216 175.566 224.389 175.585 223.55C175.605 222.711 175.454 221.876 175.14 221.098L170.242 223.642L174.761 220.319C174.344 219.575 173.777 218.926 173.096 218.413C172.416 217.899 171.636 217.533 170.806 217.337C169.977 217.141 169.115 217.12 168.277 217.274C167.439 217.429 166.642 217.756 165.936 218.234C165.231 218.713 164.632 219.333 164.179 220.055C163.726 220.778 163.427 221.586 163.303 222.43C163.178 223.274 163.23 224.134 163.455 224.957C163.68 225.779 164.073 226.546 164.609 227.209C165.183 227.94 165.914 228.532 166.748 228.94C167.583 229.348 168.499 229.562 169.428 229.565Z" fill="#0F659A"/>
<path opacity="0.1" d="M175.583 236.666L203.962 265.179L199.606 236.666H175.583Z" fill="black"/>
<path d="M297.468 56.6624L312.709 36.4569C313.619 35.2587 314.557 34.0086 315.806 33.1459C319.399 30.6617 324.664 32.1314 327.67 35.3146C330.676 38.4978 331.937 42.9271 332.86 47.2087C335.007 57.0634 335.967 67.1401 335.718 77.2233C335.59 82.5313 335.115 87.8952 333.426 92.9316C330.864 100.592 325.67 107.042 321.746 114.1C315.427 125.47 312.78 140.635 320.78 150.896C323.387 154.239 326.936 156.795 329.343 160.286C332.061 164.228 333.119 169.049 334.133 173.729C335.646 180.799 337.163 187.912 337.442 195.137C338.344 218.498 325.032 241.839 304.473 252.95C290.202 260.666 272.937 262.903 260.527 273.367C256.136 277.053 252.351 282.473 253.429 288.089C254.307 292.646 258.307 296.108 262.698 297.614C267.089 299.12 271.852 298.996 276.482 298.733C287.604 298.096 298.672 296.729 309.615 294.639C318.888 292.865 328.145 291.336 336.229 286.455C337.039 286.026 337.731 285.405 338.245 284.646C338.768 283.771 338.855 282.713 338.927 281.694C339.147 278.695 339.354 275.584 338.297 272.768C337.063 269.477 334.249 266.985 332.9 263.741C331.55 260.498 331.794 256.764 332.668 253.357C333.746 249.147 335.706 245.225 337.678 241.355C339.598 237.585 341.546 233.827 343.805 230.252C350.168 220.203 358.863 211.88 367.465 203.672" stroke="#3F3D56" stroke-width="12" stroke-miterlimit="10"/>
<path d="M322.688 27.6981C323.359 27.4062 324.077 27.2397 324.808 27.2069C325.276 27.2433 325.736 27.3482 326.173 27.5184C326.962 27.7501 327.699 28.1311 328.345 28.6407C328.664 28.8983 328.918 29.2281 329.086 29.6031C329.253 29.9781 329.329 30.3874 329.307 30.7975C329.215 31.5963 328.624 32.2832 327.978 32.7944C327.101 33.517 326.014 33.9372 324.88 33.9926C323.61 33.9926 322.413 33.4415 321.187 33.098C320.296 32.8457 319.375 32.7114 318.449 32.6986C317.983 32.7224 317.515 32.6916 317.056 32.6067C316.826 32.564 316.609 32.4676 316.423 32.3253C316.237 32.183 316.087 31.999 315.986 31.788C315.876 31.4029 315.876 30.9948 315.986 30.6097C316.082 30.1145 316.066 28.9363 316.505 28.6407C316.856 28.4051 318.102 28.5968 318.533 28.5608C319.944 28.4176 321.337 28.1285 322.688 27.6981Z" fill="#FBBEBE"/>
<path d="M317.152 28.0975C315.499 28.8564 313.559 28.2253 311.763 28.2214C310.88 28.2214 310.002 28.3691 309.124 28.4211C308.151 28.4557 307.176 28.4304 306.206 28.3452L303.284 28.1455C301.562 28.0883 299.851 27.8527 298.178 27.4425C296.749 25.7571 294.43 25.0142 292.705 23.6403C291.324 22.5379 290.334 21.0362 289.156 19.7142C287.979 18.3922 286.486 17.198 284.725 17.0582C284.044 17.0242 283.361 17.0969 282.702 17.2739C282.035 17.404 281.405 17.6765 280.853 18.0727C280.475 18.3946 280.163 18.7883 279.937 19.2311C279.711 19.6739 279.575 20.1571 279.536 20.6528C279.463 21.6448 279.562 22.6419 279.827 23.6003C279.986 24.4018 280.283 25.1695 280.706 25.8689C280.919 26.2169 281.203 26.5165 281.54 26.7482C281.876 26.98 282.257 27.139 282.658 27.2149C283.428 27.3187 284.282 26.8155 285.053 26.9752C285.449 27.08 285.83 27.2357 286.186 27.4385L290.865 29.8349C291.608 30.1943 292.33 30.5943 293.029 31.0331C294.418 31.9437 295.591 33.1539 296.993 34.0446C298.394 34.9352 300.162 35.4944 301.719 34.9112C306.509 33.1259 311.906 33.9567 316.988 34.4C316.956 34.3042 317.164 34.2163 317.223 34.1364C317.852 33.2733 318.137 32.2067 318.022 31.1449C317.898 30.0945 317.499 29.104 317.152 28.0975Z" fill="#F86D70"/>
<path d="M309.116 14.6419C309.613 14.413 310.03 14.0402 310.313 13.5715C310.769 12.7288 310.489 11.6943 310.178 10.7757C309.866 9.85711 309.551 9.05432 309.204 8.2076C308.955 7.4971 308.579 6.83795 308.094 6.26254C307.387 5.50768 306.377 5.12826 305.535 4.53316C304.537 3.82622 303.791 2.82374 302.948 1.94107C302.106 1.05841 301.076 0.239645 299.863 0.0918682C298.928 0.0448827 297.995 0.218645 297.14 0.599102C289.851 3.27905 283.891 8.58703 277.364 12.7967C274.826 14.4382 271.975 15.9679 268.981 15.7482L271.66 20.0058C272.343 21.0961 273.109 22.2504 274.307 22.7177C275.364 23.1171 276.546 22.9174 277.656 22.7177C278.539 22.5897 279.399 22.3313 280.207 21.9508C281.803 21.0841 282.829 19.2829 284.546 18.6558C285.827 18.1885 287.256 18.4761 288.538 18.9234C289.819 19.3707 291.077 19.9778 292.426 20.1615C294.821 20.485 297.216 19.4027 299.212 18.0048C300.41 17.1741 301.499 16.2195 302.805 15.6084C303.787 15.0986 304.901 14.9021 305.998 15.0453C307.208 15.213 307.918 15.2689 309.116 14.6419Z" fill="#2F2E41"/>
<path opacity="0.1" d="M310.313 13.5715C310.761 12.7447 310.497 11.7303 310.194 10.8396C310.292 11.3499 310.222 11.8784 309.994 12.3453C309.708 12.8117 309.292 13.1839 308.797 13.4157C307.599 14.0468 306.872 13.9909 305.643 13.7872C304.546 13.6465 303.432 13.8429 302.449 14.3503C301.152 14.9774 300.054 15.9479 298.857 16.7467C296.861 18.1446 294.466 19.223 292.071 18.8994C290.717 18.7197 289.468 18.1007 288.182 17.6613C286.897 17.222 285.464 16.9264 284.191 17.3937C282.478 18.0208 281.464 19.826 279.855 20.6887C279.047 21.0686 278.188 21.327 277.305 21.4556C276.191 21.6713 275.009 21.8829 273.955 21.4556C272.758 20.9923 271.991 19.834 271.305 18.7437L269.409 15.7282C269.257 15.7282 269.101 15.7282 268.949 15.7282L271.628 19.9858C272.311 21.0762 273.077 22.2304 274.275 22.6977C275.333 23.0971 276.514 22.8974 277.624 22.6977C278.507 22.5697 279.367 22.3113 280.175 21.9309C281.771 21.0642 282.797 19.2629 284.514 18.6358C285.795 18.1685 287.224 18.4561 288.506 18.9034C289.787 19.3508 291.045 19.9578 292.394 20.1416C294.789 20.4651 297.184 19.3827 299.18 17.9848C300.378 17.1541 301.467 16.1995 302.773 15.5884C303.755 15.0786 304.869 14.8821 305.966 15.0253C307.196 15.225 307.922 15.2809 309.116 14.6539C309.615 14.4218 310.032 14.0446 310.313 13.5715Z" fill="black"/>
<path d="M330.952 286.771C331.187 286.403 331.481 286.077 331.822 285.804C333.566 284.159 334.377 281.738 334.808 279.366C335.239 276.993 335.363 274.573 336.053 272.253C336.426 271.062 336.896 269.904 337.458 268.79C337.857 267.935 338.356 266.258 339.091 265.663C339.234 265.538 339.408 265.454 339.594 265.419C339.937 264.684 340.429 264.028 341.039 263.494C342.181 262.459 343.574 261.637 344.336 260.299C344.545 259.834 344.803 259.393 345.107 258.985C345.622 258.414 346.436 258.186 346.911 257.583C347.53 256.808 347.39 255.702 347.31 254.711C347.23 253.721 347.31 252.542 348.165 252.027C348.676 251.712 349.334 251.74 349.865 251.464C350.663 251.065 350.979 250.054 350.963 249.155C350.947 248.257 350.667 247.382 350.596 246.488C350.372 243.628 352.256 240.784 351.526 238.012C351.25 236.962 350.624 236.047 350.156 235.073C349.997 234.746 349.863 234.407 349.757 234.058C348.513 234.553 347.206 234.869 345.873 234.997C348.073 230.06 347.514 224.321 348.54 219.021L348.408 218.837C347.37 217.473 346.781 215.819 346.723 214.104C346.723 212.107 347.646 210.282 348.061 208.353C348.412 206.708 348.4 204.994 348.859 203.381C349.181 202.378 349.605 201.412 350.125 200.497C350.624 199.57 351.146 198.664 351.693 197.769C352.204 196.076 352.717 194.382 353.23 192.689C353.949 190.292 354.687 187.896 356.084 185.843C356.595 185.088 356.751 183.567 357.537 183.111C358.175 182.779 358.9 182.652 359.613 182.748C360.723 182.125 361.697 181.226 361.837 179.996C361.851 179.727 361.824 179.458 361.757 179.197H361.621C359.861 179.033 358.975 177.484 358.06 176.13C356.579 173.929 357.146 170.958 358.06 168.461C358.287 167.672 358.697 166.948 359.258 166.349C360.539 165.15 362.567 165.414 364.22 164.835C364.756 164.6 365.303 164.394 365.861 164.216C366.958 163.956 368.108 164.32 369.114 164.823C370.12 165.326 371.058 165.989 372.112 166.389C373.166 166.788 374.467 167.103 374.727 168.186C374.8 168.551 374.768 168.929 374.635 169.276C374.393 169.969 373.968 170.583 373.405 171.054C373.854 171.979 374.097 172.992 374.117 174.021C374.137 175.049 373.933 176.07 373.521 177.013C373.108 177.956 372.497 178.798 371.728 179.481C370.958 180.164 370.05 180.672 369.066 180.971C368.763 181.454 368.479 181.953 368.22 182.46C367.757 183.355 367.366 184.409 367.521 185.368C367.811 185.673 368.078 185.998 368.32 186.342C369.465 187.94 370.116 189.817 370.715 191.686C371.523 194.072 372.168 196.51 372.647 198.983C373.621 201.052 374.81 203.033 375.517 205.21C376.782 205.213 378.041 205.045 379.261 204.711L382.631 203.944C383.8 203.68 385.026 203.393 385.944 202.618C386.431 202.218 386.81 201.687 387.305 201.288C387.8 200.888 388.794 200.429 389.337 200.757C389.436 200.817 389.528 200.888 389.612 200.968C390.103 199.97 393.245 204.056 391.097 204.459L391.237 204.858C391.52 205.685 392.123 206.692 391.972 207.554L376.978 212.703C376.016 213.093 374.996 213.318 373.96 213.37C373.556 213.366 373.154 213.313 372.763 213.21V213.977V214.005C372.723 219.273 373.561 224.509 373.717 229.773C373.745 230.731 373.717 231.77 373.11 232.521C372.431 233.343 371.226 233.503 370.176 233.319C369.925 233.279 369.677 233.224 369.433 233.156C369.079 234.479 368.822 235.828 368.667 237.19L367.673 244.283C367.544 245.013 367.491 245.755 367.517 246.496C367.633 248.165 368.515 249.667 369.154 251.212C369.793 252.758 370.172 254.607 369.33 256.049C369.07 256.496 368.707 256.88 368.471 257.343C368.172 258.059 368.036 258.833 368.072 259.608C368.011 261.764 367.952 263.919 367.896 266.07C368.071 266.045 368.249 266.081 368.399 266.174C369.23 266.817 369.138 269.9 369.198 270.855C369.262 272.452 369.198 274.082 369.286 275.695C369.393 277.877 369.752 280.039 370.355 282.138C370.499 282.819 370.814 283.453 371.27 283.979C371.736 284.384 372.291 284.672 372.89 284.822C374.881 285.445 376.961 285.728 379.046 285.66C379.888 285.632 380.766 285.552 381.549 285.872C382.331 286.192 382.962 287.07 382.678 287.869C382.435 288.54 381.696 288.859 381.03 289.111C379.506 289.646 378.036 290.323 376.639 291.132C376.1 291.5 375.531 291.822 374.938 292.095C374.372 292.299 373.786 292.444 373.19 292.526L366.116 293.724C364.667 293.976 362.923 294.124 362 292.925C361.501 292.278 361.43 291.4 361.454 290.581C361.493 288.983 361.813 287.358 361.601 285.76C361.447 284.814 361.199 283.886 360.863 282.988L358.739 276.71C358.028 274.605 357.31 272.484 357.035 270.28C356.935 269.481 356.943 268.574 357.553 268.075C357.708 267.948 357.888 267.856 358.08 267.803C358.104 265.878 358.356 263.949 358.248 262.024C358.22 261.545 358.172 261.062 358.132 260.582C357.759 260.932 357.427 261.323 357.142 261.748C356.464 262.815 356.212 264.229 355.17 264.944C354.284 265.551 352.971 265.519 352.348 266.397C352.148 266.735 351.997 267.099 351.901 267.48C351.537 268.42 350.995 269.281 350.304 270.016C350.064 270.892 349.733 271.74 349.318 272.548C348.73 273.786 348.145 275.024 347.562 276.263C346.935 277.589 346.304 278.915 345.566 280.169C345.006 280.964 344.556 281.832 344.229 282.749C343.666 284.722 344.58 286.886 346.037 288.34C347.494 289.794 349.406 290.629 351.29 291.408C351.491 291.473 351.675 291.583 351.829 291.727C351.992 291.921 352.077 292.169 352.069 292.422C352.069 293.345 351.314 294.136 350.444 294.419C349.554 294.658 348.622 294.692 347.717 294.519C342.616 293.9 337.53 292.654 333.019 290.174C332.345 289.852 331.746 289.39 331.263 288.82C331.035 288.536 330.887 288.197 330.832 287.837C330.778 287.477 330.819 287.109 330.952 286.771Z" fill="url(#paint1_linear_1_17)"/>
<path d="M352.516 197.206C351.667 198.511 350.868 199.85 350.121 201.224C349.599 202.13 349.175 203.088 348.855 204.084C348.388 205.681 348.404 207.391 348.057 209.02C347.658 210.937 346.723 212.767 346.723 214.728C346.782 216.432 347.371 218.075 348.408 219.428C349.442 220.768 350.623 221.987 351.929 223.063C354.943 215.25 356.627 206.986 356.911 198.616C356.951 197.458 356.955 196.259 356.535 195.181C356.272 194.502 355.031 192.641 354.228 193.372C353.937 193.639 353.861 194.846 353.681 195.245C353.345 195.928 352.955 196.584 352.516 197.206Z" fill="#F86D70"/>
<path opacity="0.1" d="M352.516 197.206C351.667 198.511 350.868 199.85 350.121 201.224C349.599 202.13 349.175 203.088 348.855 204.084C348.388 205.681 348.404 207.391 348.057 209.02C347.658 210.937 346.723 212.767 346.723 214.728C346.782 216.432 347.371 218.075 348.408 219.428C349.442 220.768 350.623 221.987 351.929 223.063C354.943 215.25 356.627 206.986 356.911 198.616C356.951 197.458 356.955 196.259 356.535 195.181C356.272 194.502 355.031 192.641 354.228 193.372C353.937 193.639 353.861 194.846 353.681 195.245C353.345 195.928 352.955 196.584 352.516 197.206Z" fill="black"/>
<path d="M395.369 201.571C396.929 201.312 398.662 201.44 399.875 202.45C400.608 203.072 401.071 203.954 401.169 204.91C401.273 206.021 400.63 207.331 399.52 207.419C399.253 207.422 398.986 207.404 398.722 207.367C398.021 207.362 397.321 207.42 396.63 207.538C395.27 207.666 393.899 207.466 392.632 206.954C391.365 206.443 390.24 205.635 389.349 204.599C388.399 203.425 389.652 202.885 390.782 202.646C392.323 202.318 393.828 201.835 395.369 201.571Z" fill="#FBBEBE"/>
<path d="M368.671 237.645L367.681 244.682C367.553 245.407 367.502 246.143 367.529 246.879C367.645 248.536 368.523 250.026 369.162 251.56C369.801 253.094 370.184 254.927 369.342 256.353C369.082 256.8 368.715 257.175 368.483 257.635C368.184 258.347 368.048 259.116 368.084 259.887L367.813 269.872C364.731 270.081 361.638 270.063 358.559 269.82C358.438 269.831 358.317 269.8 358.216 269.732C358.136 269.629 358.094 269.5 358.1 269.369C357.965 267.032 358.372 264.692 358.24 262.356C358.192 261.501 358.068 260.65 358.056 259.791C358.005 256.313 359.725 252.906 359.206 249.463C359.043 248.597 358.829 247.741 358.567 246.899C356.927 240.908 357.274 234.609 357.633 228.427C357.63 228.328 357.658 228.23 357.713 228.147C357.775 228.089 357.85 228.048 357.933 228.027C359.679 227.505 361.526 227.41 363.317 227.751C365.109 228.093 366.791 228.86 368.224 229.988C368.659 230.34 369.757 230.679 370.044 231.095C370.443 231.682 369.916 232.261 369.689 232.884C369.18 234.43 368.839 236.026 368.671 237.645Z" fill="#3F3D56"/>
<path opacity="0.1" d="M368.671 237.645L367.681 244.682C367.553 245.407 367.502 246.143 367.529 246.879C367.645 248.536 368.523 250.026 369.162 251.56C369.801 253.094 370.184 254.927 369.342 256.353C369.082 256.8 368.715 257.175 368.483 257.635C368.184 258.347 368.048 259.116 368.084 259.887L367.813 269.872C364.731 270.081 361.638 270.063 358.559 269.82C358.438 269.831 358.317 269.8 358.216 269.732C358.136 269.629 358.094 269.5 358.1 269.369C357.965 267.032 358.372 264.692 358.24 262.356C358.192 261.501 358.068 260.65 358.056 259.791C358.005 256.313 359.725 252.906 359.206 249.463C359.043 248.597 358.829 247.741 358.567 246.899C356.927 240.908 357.274 234.609 357.633 228.427C357.63 228.328 357.658 228.23 357.713 228.147C357.775 228.089 357.85 228.048 357.933 228.027C359.679 227.505 361.526 227.41 363.317 227.751C365.109 228.093 366.791 228.86 368.224 229.988C368.659 230.34 369.757 230.679 370.044 231.095C370.443 231.682 369.916 232.261 369.689 232.884C369.18 234.43 368.839 236.026 368.671 237.645Z" fill="black"/>
<path d="M350.16 235.52C350.627 236.491 351.254 237.397 351.53 238.44C352.26 241.192 350.38 244.031 350.604 246.851C350.675 247.742 350.951 248.608 350.971 249.499C350.991 250.39 350.663 251.38 349.873 251.788C349.342 252.063 348.675 252.035 348.176 252.347C347.334 252.858 347.238 254.032 347.322 255.011C347.406 255.989 347.542 257.092 346.923 257.862C346.448 258.457 345.634 258.685 345.123 259.248C344.817 259.654 344.558 260.092 344.348 260.554C343.586 261.884 342.197 262.703 341.055 263.749C339.913 264.796 338.947 266.33 339.458 267.775C339.833 268.842 340.887 269.497 341.901 269.996C343.751 270.911 345.704 271.601 347.717 272.053C347.934 272.117 348.162 272.128 348.384 272.085C348.608 272.002 348.808 271.865 348.967 271.685C350.144 270.531 351.362 269.321 351.905 267.767C352.002 267.39 352.153 267.028 352.352 266.693C352.975 265.822 354.284 265.85 355.174 265.251C356.212 264.544 356.464 263.138 357.142 262.08C357.785 261.081 358.815 260.395 359.537 259.46C360.735 257.91 361.058 255.845 361.933 254.076C362.304 253.321 362.779 252.622 363.074 251.835C363.373 250.899 363.556 249.929 363.621 248.948C364.184 244.283 365.617 239.586 364.715 234.969C364.515 233.95 364.208 232.972 364.08 231.926C363.857 230.112 364.208 228.263 363.94 226.454C363.934 226.228 363.877 226.006 363.773 225.805C363.668 225.604 363.519 225.43 363.338 225.296C363.122 225.199 362.888 225.15 362.651 225.152C360.284 225.029 357.912 225.083 355.553 225.316C354.356 225.431 353.011 225.675 352.296 226.654C351.685 227.488 351.717 228.615 351.498 229.633C351.258 230.883 350.623 231.57 349.957 232.553C349.29 233.535 349.669 234.51 350.16 235.52Z" fill="#3F3D56"/>
<path d="M359.37 267.975C358.739 267.975 358.04 267.939 357.553 268.339C356.947 268.834 356.935 269.748 357.035 270.531C357.314 272.716 358.029 274.821 358.743 276.922L360.867 283.156C361.203 284.045 361.451 284.966 361.605 285.904C361.817 287.502 361.497 289.099 361.458 290.697C361.458 291.496 361.509 292.382 362.008 293.025C362.911 294.183 364.671 294.048 366.12 293.8L373.19 292.602C373.786 292.52 374.372 292.377 374.938 292.174C375.529 291.902 376.096 291.582 376.635 291.216C378.034 290.416 379.504 289.748 381.026 289.219C381.688 288.971 382.431 288.652 382.67 287.985C382.954 287.186 382.323 286.311 381.541 285.988C380.758 285.664 379.884 285.748 379.038 285.776C376.956 285.843 374.879 285.561 372.89 284.941C372.291 284.798 371.735 284.511 371.27 284.107C370.812 283.587 370.496 282.958 370.351 282.281C369.753 280.199 369.394 278.055 369.282 275.891C369.202 274.294 369.258 272.696 369.194 271.098C369.154 270.152 369.246 267.104 368.395 266.453C367.761 265.966 365.146 267.312 364.292 267.508C362.677 267.869 361.024 268.026 359.37 267.975Z" fill="#2F2E41"/>
<path d="M336.077 272.416C335.39 274.709 335.279 277.125 334.836 279.478C334.392 281.83 333.598 284.234 331.854 285.868C331.513 286.137 331.22 286.461 330.987 286.827C330.84 287.169 330.79 287.545 330.843 287.913C330.896 288.282 331.049 288.629 331.287 288.915C331.769 289.484 332.366 289.942 333.039 290.261C337.546 292.722 342.62 293.96 347.733 294.575C348.637 294.748 349.567 294.715 350.456 294.479C351.326 294.183 352.097 293.401 352.081 292.482C352.089 292.231 352.003 291.986 351.841 291.795C351.686 291.653 351.502 291.545 351.302 291.48C349.418 290.705 347.502 289.858 346.049 288.432C344.596 287.006 343.678 284.838 344.24 282.897C344.57 281.988 345.018 281.127 345.574 280.336C346.305 279.08 346.971 277.787 347.57 276.462L349.326 272.776C349.837 271.701 350.36 270.591 350.444 269.397C348.239 269.497 346.037 269.145 343.973 268.362C343.009 267.969 342.111 267.43 341.31 266.765C340.632 266.198 340.013 265.143 339.099 265.882C338.364 266.473 337.901 268.135 337.466 268.982C336.915 270.089 336.45 271.237 336.077 272.416Z" fill="#2F2E41"/>
<path d="M361.809 180.883C361.633 182.412 360.148 183.427 358.731 184.03L367.697 186.898C367.118 185.787 367.589 184.429 368.164 183.303C368.632 182.413 369.166 181.558 369.761 180.747C369.848 180.623 369.948 180.463 369.884 180.324C369.827 180.23 369.738 180.16 369.633 180.128C367.789 179.305 365.888 178.454 363.873 178.155C363.29 178.067 362.188 177.835 361.753 178.43C361.318 179.025 361.905 180.176 361.809 180.883Z" fill="#FBBEBE"/>
<path opacity="0.1" d="M361.809 180.883C361.633 182.412 360.148 183.427 358.731 184.03L367.697 186.898C367.118 185.787 367.589 184.429 368.164 183.303C368.632 182.413 369.166 181.558 369.761 180.747C369.848 180.623 369.948 180.463 369.884 180.324C369.827 180.23 369.738 180.16 369.633 180.128C367.789 179.305 365.888 178.454 363.873 178.155C363.29 178.067 362.188 177.835 361.753 178.43C361.318 179.025 361.905 180.176 361.809 180.883Z" fill="black"/>
<path d="M367.034 182.125C370.919 182.125 374.068 178.974 374.068 175.087C374.068 171.201 370.919 168.05 367.034 168.05C363.15 168.05 360.001 171.201 360.001 175.087C360.001 178.974 363.15 182.125 367.034 182.125Z" fill="#FBBEBE"/>
<path d="M373.11 232.988C372.431 233.787 371.23 233.962 370.18 233.787C367.725 233.387 365.713 231.578 363.314 230.927C360.368 230.128 357.246 231.155 354.468 232.409C351.689 233.663 348.919 235.185 345.877 235.424C348.628 229.29 347.055 221.905 349.681 215.718C350.328 214.208 351.226 212.747 351.37 211.113C351.55 209.08 350.536 207.119 350.38 205.094C350.236 203.293 350.779 201.5 351.294 199.786L353.222 193.456C353.941 191.099 354.679 188.699 356.073 186.666C356.583 185.919 356.743 184.409 357.526 183.954C359.234 182.972 361.825 184.214 363.677 184.282C365.529 184.349 367.218 185.667 368.3 187.157C369.445 188.731 370.096 190.604 370.695 192.457C371.651 195.216 372.365 198.053 372.826 200.936C372.886 201.368 372.938 201.799 372.978 202.234C373.377 206.336 372.795 210.462 372.763 214.58C372.763 214.58 372.763 214.58 372.763 214.612C372.727 219.836 373.561 225.032 373.721 230.256C373.745 231.227 373.721 232.269 373.11 232.988Z" fill="#F86D70"/>
<path opacity="0.1" d="M372.763 214.616C371.385 214.268 370.136 213.382 369.07 212.407C368.146 211.583 367.323 210.651 366.619 209.631C365.735 208.238 365.025 206.741 364.507 205.174C363.029 201.014 362.09 196.681 361.713 192.281C361.609 191.083 361.577 189.801 362.292 188.851C362.692 188.335 363.254 187.971 363.888 187.816C364.521 187.662 365.189 187.727 365.781 188C366.727 188.463 367.338 189.394 367.9 190.28C369.026 192.05 370.156 193.835 370.878 195.8C371.198 196.671 371.433 197.569 371.745 198.444C372.061 199.307 372.426 200.151 372.838 200.972C372.898 201.404 372.95 201.835 372.99 202.27C373.361 206.352 372.794 210.478 372.763 214.616Z" fill="black"/>
<path d="M362.308 188.076C361.597 189.022 361.629 190.32 361.729 191.507C362.106 195.905 363.045 200.236 364.523 204.395C365.038 205.963 365.748 207.461 366.635 208.852C367.338 209.873 368.161 210.805 369.086 211.628C370.443 212.87 372.096 213.977 373.936 213.993C374.972 213.942 375.992 213.719 376.954 213.334L391.928 208.245C392.079 207.387 391.477 206.392 391.193 205.569L390.395 203.197C390.167 202.546 389.9 201.839 389.309 201.484C388.718 201.128 387.772 201.615 387.277 202.011C386.782 202.406 386.403 202.925 385.92 203.329C384.994 204.096 383.776 204.379 382.607 204.643L379.241 205.402C378.021 205.733 376.762 205.899 375.497 205.897C374.559 203.033 372.775 200.509 371.765 197.665C371.453 196.795 371.214 195.896 370.894 195.025C370.172 193.06 369.042 191.275 367.92 189.506C367.358 188.615 366.747 187.684 365.801 187.225C365.208 186.952 364.54 186.888 363.906 187.042C363.272 187.196 362.709 187.561 362.308 188.076Z" fill="#F86D70"/>
<path d="M364.791 176.673C364.845 176.212 364.988 175.765 365.214 175.359C365.332 175.155 365.511 174.994 365.726 174.899C365.941 174.803 366.181 174.778 366.411 174.828C367.114 175.048 367.349 176.138 368.084 176.174C368.579 176.198 368.934 175.695 369.09 175.219C369.246 174.744 369.329 174.213 369.701 173.877C369.959 173.683 370.255 173.547 370.571 173.478C372.275 172.939 374.036 171.94 374.603 170.243C374.734 169.899 374.766 169.525 374.695 169.164C374.435 168.09 373.098 167.767 372.08 167.375C371.062 166.984 370.084 166.329 369.086 165.825C368.088 165.322 366.93 164.963 365.833 165.218C365.275 165.394 364.727 165.599 364.192 165.833C362.539 166.405 360.511 166.141 359.23 167.331C358.672 167.926 358.261 168.645 358.032 169.428C357.134 171.908 356.571 174.86 358.052 177.041C358.963 178.386 359.853 179.924 361.609 180.084C363.653 180.268 364.467 178.398 364.791 176.673Z" fill="#2F2E41"/>
<g opacity="0.1">
<path d="M367.912 174.373C368.068 173.901 368.152 173.366 368.519 173.031C368.778 172.838 369.075 172.702 369.389 172.631C371.098 172.092 372.854 171.097 373.425 169.396C373.555 169.052 373.586 168.678 373.513 168.318C373.474 168.147 373.402 167.986 373.301 167.842C373.952 168.122 374.519 168.501 374.679 169.164C374.75 169.525 374.718 169.899 374.587 170.243C374.02 171.94 372.26 172.939 370.555 173.478C370.24 173.547 369.943 173.683 369.685 173.877C369.314 174.213 369.23 174.748 369.074 175.219C368.918 175.691 368.563 176.198 368.068 176.174C367.573 176.15 367.334 175.698 367.018 175.319C367.453 175.263 367.765 174.808 367.912 174.373Z" fill="black"/>
<path d="M360.44 179.229C362.491 179.417 363.302 177.552 363.633 175.826C363.687 175.365 363.831 174.918 364.056 174.512C364.174 174.309 364.354 174.148 364.569 174.053C364.784 173.959 365.024 173.935 365.254 173.985C365.633 174.101 365.877 174.476 366.136 174.784C365.953 174.801 365.776 174.861 365.62 174.958C365.463 175.055 365.331 175.187 365.234 175.343C365.008 175.749 364.865 176.196 364.811 176.657C364.487 178.382 363.673 180.252 361.617 180.06C360.803 179.973 360.051 179.584 359.509 178.97C359.803 179.106 360.117 179.194 360.44 179.229Z" fill="black"/>
</g>
<path d="M68.1735 259.724L75.8139 255.226C74.7785 253.463 73.4579 251.884 71.9059 250.553L57.4912 255.039L68.8042 248.393C66.0077 246.86 62.8605 246.082 59.6723 246.136C56.4842 246.19 53.365 247.073 50.6217 248.7C47.8785 250.326 45.6058 252.639 44.0273 255.411C42.4488 258.183 41.619 261.318 41.6194 264.508C41.6194 274.653 49.8387 275.008 59.9821 275.008C70.1255 275.008 78.3448 274.653 78.3448 264.508C78.3426 261.939 77.7985 259.4 76.7481 257.056L68.1735 259.724Z" fill="#0F659A"/>
<path opacity="0.1" d="M70.1175 269.589C69.3044 268.773 68.3956 268.058 67.411 267.46C66.0218 266.537 64.5888 265.595 62.9521 265.283C61.515 265.008 60.034 265.239 58.561 265.159C56.0193 265.003 53.6269 263.906 51.8506 262.08C50.8088 261.002 49.9864 259.684 48.733 258.849C47.3797 257.962 45.6632 257.77 44.0585 257.99C43.5931 258.058 43.132 258.153 42.6773 258.274C41.9569 260.273 41.5894 262.383 41.5915 264.508C41.5915 274.653 49.8108 275.008 59.9542 275.008C64.8762 275.008 69.3431 274.925 72.6404 273.678L72.0895 272.648C71.5641 271.549 70.9015 270.521 70.1175 269.589Z" fill="black"/>
<path d="M233.11 285.409L222.975 279.446C224.348 277.105 226.102 275.01 228.164 273.247L247.282 279.194L232.3 270.383C236.008 268.351 240.182 267.319 244.409 267.39C248.637 267.461 252.773 268.633 256.411 270.789C260.049 272.945 263.063 276.012 265.157 279.687C267.25 283.363 268.351 287.521 268.351 291.751C268.351 305.207 257.449 305.674 244 305.674C230.552 305.674 219.65 305.207 219.65 291.751C219.646 288.346 220.357 284.978 221.737 281.866L233.11 285.409Z" fill="#0F659A"/>
<path opacity="0.1" d="M230.528 298.489C231.607 297.406 232.813 296.458 234.12 295.665C235.961 294.443 237.865 293.197 240.032 292.782C241.936 292.418 243.9 292.726 245.836 292.614C249.207 292.407 252.379 290.953 254.738 288.536C256.12 287.102 257.209 285.341 258.874 284.25C260.666 283.052 262.942 282.817 265.069 283.112C265.689 283.2 266.302 283.325 266.906 283.488C267.859 286.138 268.346 288.934 268.343 291.751C268.343 305.207 257.441 305.674 243.992 305.674C237.465 305.674 231.541 305.566 227.166 303.913L227.897 302.547C228.659 301.121 229.434 299.687 230.528 298.489Z" fill="black"/>
</g>
<defs>
<linearGradient id="paint0_linear_1_17" x1="218.695" y1="83.2573" x2="324.231" y2="20.7047" gradientUnits="userSpaceOnUse">
<stop stop-color="#808080" stop-opacity="0.25"/>
<stop offset="0.54" stop-color="#808080" stop-opacity="0.12"/>
<stop offset="1" stop-color="#808080" stop-opacity="0.1"/>
</linearGradient>
<linearGradient id="paint1_linear_1_17" x1="359.1" y1="295.494" x2="364.349" y2="164.337" gradientUnits="userSpaceOnUse">
<stop stop-color="#808080" stop-opacity="0.25"/>
<stop offset="0.54" stop-color="#808080" stop-opacity="0.12"/>
<stop offset="1" stop-color="#808080" stop-opacity="0.1"/>
</linearGradient>
<clipPath id="clip0_1_17">
<rect width="437" height="315" fill="white"/>
</clipPath>
</defs>
</svg>
