<svg width="40" height="40" viewBox="0 0 40 40" fill="none" xmlns="http://www.w3.org/2000/svg">
<path d="M17.92 28.1001V31.4834C17.92 34.3501 15.2534 36.6668 11.97 36.6668C8.68669 36.6668 6.00336 34.3501 6.00336 31.4834V28.1001C6.00336 30.9668 8.67002 33.0001 11.97 33.0001C15.2534 33.0001 17.92 30.9501 17.92 28.1001Z" stroke="#3498DB" stroke-width="2" stroke-linecap="round" stroke-linejoin="round"/>
<path d="M17.9167 23.5168C17.9167 24.3501 17.6833 25.1168 17.2833 25.7834C16.3 27.4001 14.2833 28.4168 11.95 28.4168C9.61667 28.4168 7.6 27.3834 6.61667 25.7834C6.21667 25.1168 5.98334 24.3501 5.98334 23.5168C5.98334 22.0834 6.65 20.8001 7.71667 19.8668C8.8 18.9168 10.2833 18.3501 11.9333 18.3501C13.5833 18.3501 15.0667 18.9334 16.15 19.8668C17.25 20.7834 17.9167 22.0834 17.9167 23.5168Z" stroke="#3498DB" stroke-width="2" stroke-linecap="round" stroke-linejoin="round"/>
<path d="M17.92 23.5166V28.0999C17.92 30.9666 15.2534 32.9999 11.97 32.9999C8.68669 32.9999 6.00336 30.9499 6.00336 28.0999V23.5166C6.00336 20.6499 8.67002 18.3333 11.97 18.3333C13.62 18.3333 15.1034 18.9166 16.1867 19.8499C17.2534 20.7833 17.92 22.0833 17.92 23.5166ZM36.6667 18.2833V21.7166C36.6667 22.6333 35.9334 23.3833 35 23.4166H31.7334C29.9334 23.4166 28.2834 22.0999 28.1334 20.2999C28.0334 19.2499 28.4334 18.2666 29.1334 17.5833C29.75 16.9499 30.6 16.5833 31.5334 16.5833H35C35.9334 16.6166 36.6667 17.3666 36.6667 18.2833Z" stroke="#3498DB" stroke-width="2" stroke-linecap="round" stroke-linejoin="round"/>
<path d="M3.33331 17.4999V14.1666C3.33331 9.63325 6.06665 6.46659 10.3166 5.93325C10.75 5.86659 11.2 5.83325 11.6666 5.83325H26.6666C27.1 5.83325 27.5166 5.84992 27.9166 5.91659C32.2166 6.41659 35 9.59992 35 14.1666V16.5833H31.5333C30.6 16.5833 29.75 16.9499 29.1333 17.5833C28.4333 18.2666 28.0333 19.2499 28.1333 20.2999C28.2833 22.0999 29.9333 23.4166 31.7333 23.4166H35V25.8333C35 30.8333 31.6666 34.1666 26.6666 34.1666H22.5" stroke="#3498DB" stroke-width="2" stroke-linecap="round" stroke-linejoin="round"/>
</svg>
