<svg width="219" height="32" viewBox="0 0 219 32" fill="none" xmlns="http://www.w3.org/2000/svg">
<path d="M25.098 19.1373C25.098 12.0334 19.4796 6.27459 12.549 6.27459C5.61837 6.27459 0 12.0334 0 19.1373C0 26.2412 5.61837 32 12.549 32C19.4796 32 25.098 26.2412 25.098 19.1373ZM4.57123 19.1373C4.57123 14.6212 8.14299 10.9601 12.549 10.9601C16.955 10.9601 20.5267 14.6212 20.5267 19.1373C20.5267 23.6534 16.955 27.3145 12.549 27.3145C8.14299 27.3145 4.57123 23.6534 4.57123 19.1373Z" fill="#3498DB"/>
<path d="M39.5293 20.0788C39.5293 16.96 37.001 14.4317 33.8823 14.4317C30.7635 14.4317 28.2352 16.96 28.2352 20.0788C28.2352 23.1976 30.7635 25.7258 33.8823 25.7258C37.001 25.7258 39.5293 23.1976 39.5293 20.0788ZM30.2923 20.0788C30.2923 18.0961 31.8996 16.4888 33.8823 16.4888C35.865 16.4888 37.4723 18.0961 37.4723 20.0788C37.4723 22.0615 35.865 23.6688 33.8823 23.6688C31.8996 23.6688 30.2923 22.0615 30.2923 20.0788Z" fill="#E29E21"/>
<path d="M35.1372 6.27458C35.1372 2.80928 32.328 9.44138e-05 28.8627 9.44138e-05C25.3974 9.44138e-05 22.5882 2.80928 22.5882 6.27458C22.5882 9.73989 25.3974 12.5491 28.8627 12.5491C32.328 12.5491 35.1372 9.73989 35.1372 6.27458ZM24.8738 6.27458C24.8738 4.07159 26.6597 2.28571 28.8627 2.28571C31.0657 2.28571 32.8516 4.07159 32.8516 6.27458C32.8516 8.47758 31.0657 10.2635 28.8627 10.2635C26.6597 10.2635 24.8738 8.47758 24.8738 6.27458Z" fill="#3498DB"/>
<path d="M76.828 26.272C76.545 26.5768 76.0986 26.8925 75.4889 27.2191C74.8793 27.524 74.1716 27.807 73.366 28.0683C72.5821 28.3296 71.7765 28.5365 70.9491 28.6889C70.1217 28.8631 69.3378 28.9502 68.5975 28.9502C66.6378 28.9502 64.8741 28.6671 63.3064 28.101C61.7387 27.5131 60.3996 26.7074 59.2891 25.6841C58.1787 24.6389 57.3295 23.4087 56.7416 21.9934C56.1537 20.5781 55.8597 19.0321 55.8597 17.3555C55.8597 15.1564 56.1864 13.2512 56.8396 11.6399C57.5146 10.0068 58.4182 8.65686 59.5504 7.58994C60.7044 6.50124 62.0218 5.69561 63.5024 5.17304C65.0048 4.65046 66.5725 4.38917 68.2056 4.38917C69.7515 4.38917 71.1668 4.56337 72.4515 4.91175C73.7361 5.23836 74.8248 5.65206 75.7176 6.15286L74.1825 10.5621C73.7906 10.3443 73.268 10.1266 72.6148 9.90886C71.9616 9.69112 71.2975 9.51693 70.6225 9.38629C69.9475 9.23387 69.3487 9.15766 68.8261 9.15766C67.5197 9.15766 66.3657 9.32097 65.3641 9.64758C64.3625 9.97419 63.5133 10.4641 62.8165 11.1173C62.1415 11.7705 61.6298 12.5871 61.2814 13.5669C60.9331 14.5249 60.7589 15.6463 60.7589 16.931C60.7589 18.0632 60.9548 19.0866 61.3468 20.0011C61.7387 20.8938 62.2831 21.6559 62.9798 22.2873C63.6984 22.9188 64.5367 23.3978 65.4947 23.7244C66.4745 24.051 67.5523 24.2143 68.7281 24.2143C69.4031 24.2143 70.0237 24.1708 70.5898 24.0837C71.1559 23.9748 71.635 23.8115 72.0269 23.5938V20.687H67.8789V16.1144H76.828V26.272Z" fill="#3498DB"/>
<path d="M90.1118 29.0808C88.3699 29.0808 86.8893 28.7542 85.6699 28.101C84.4724 27.4478 83.5579 26.5441 82.9264 25.3901C82.295 24.2361 81.9793 22.9079 81.9793 21.4055C81.9793 19.9684 82.3494 18.6729 83.0897 17.5189C83.8301 16.3648 84.8208 15.4503 86.0619 14.7753C87.303 14.0786 88.6856 13.7302 90.2098 13.7302C92.2566 13.7302 93.9332 14.329 95.2396 15.5265C96.5678 16.7023 97.4279 18.4116 97.8198 20.6543L86.7151 24.1817L85.7026 21.6994L93.7372 18.9886L92.79 19.4132C92.6158 18.8471 92.3001 18.3571 91.8429 17.9434C91.4074 17.508 90.7433 17.2902 89.8505 17.2902C89.1755 17.2902 88.5768 17.4535 88.0542 17.7801C87.5534 18.085 87.1615 18.5313 86.8784 19.1192C86.6171 19.6854 86.4865 20.3603 86.4865 21.1442C86.4865 22.0369 86.6498 22.7881 86.9764 23.3978C87.303 23.9857 87.7494 24.4321 88.3155 24.7369C88.8816 25.0417 89.513 25.1942 90.2098 25.1942C90.7106 25.1942 91.1896 25.1071 91.6469 24.9329C92.1259 24.7587 92.5941 24.5301 93.0513 24.247L95.0763 27.6437C94.3142 28.0792 93.4868 28.4276 92.5941 28.6889C91.7231 28.9502 90.8957 29.0808 90.1118 29.0808Z" fill="#3498DB"/>
<path d="M106.924 14.4161L107.283 16.931L107.217 16.735C107.784 15.7769 108.491 15.0366 109.34 14.5141C110.19 13.9697 111.213 13.6975 112.411 13.6975C113.194 13.6975 113.88 13.8064 114.468 14.0241C115.078 14.2419 115.59 14.5685 116.003 15.004C116.417 15.4177 116.7 15.962 116.852 16.637L116.689 16.6697C117.299 15.7769 118.028 15.0584 118.877 14.5141C119.748 13.9697 120.652 13.6975 121.588 13.6975C123.004 13.6975 124.125 14.1003 124.952 14.906C125.802 15.6898 126.237 16.7132 126.259 17.9761V28.6889H121.719V19.8704C121.697 19.239 121.599 18.7273 121.425 18.3354C121.251 17.9217 120.848 17.693 120.216 17.6495C119.476 17.6495 118.845 17.9108 118.322 18.4334C117.821 18.9342 117.44 19.5874 117.179 20.393C116.94 21.1769 116.82 21.9934 116.82 22.8426V28.6889H112.247V19.8704C112.225 19.239 112.106 18.7273 111.888 18.3354C111.692 17.9217 111.278 17.693 110.647 17.6495C109.928 17.6495 109.319 17.9108 108.818 18.4334C108.339 18.9342 107.969 19.5765 107.707 20.3603C107.468 21.1442 107.348 21.9498 107.348 22.7773V28.6889H102.776V14.4161H106.924Z" fill="#3498DB"/>
<path d="M133.943 8.14518H138.516V14.3507H141.978V17.9108H138.516V28.6889H133.943V17.9108H131.722V14.3507H133.943V8.14518Z" fill="#3498DB"/>
<path d="M154.113 29.0808C152.371 29.0808 150.891 28.7542 149.671 28.101C148.474 27.4478 147.559 26.5441 146.928 25.3901C146.296 24.2361 145.981 22.9079 145.981 21.4055C145.981 19.9684 146.351 18.6729 147.091 17.5189C147.831 16.3648 148.822 15.4503 150.063 14.7753C151.304 14.0786 152.687 13.7302 154.211 13.7302C156.258 13.7302 157.934 14.329 159.241 15.5265C160.569 16.7023 161.429 18.4116 161.821 20.6543L150.716 24.1817L149.704 21.6994L157.738 18.9886L156.791 19.4132C156.617 18.8471 156.301 18.3571 155.844 17.9434C155.409 17.508 154.745 17.2902 153.852 17.2902C153.177 17.2902 152.578 17.4535 152.056 17.7801C151.555 18.085 151.163 18.5313 150.88 19.1192C150.618 19.6854 150.488 20.3603 150.488 21.1442C150.488 22.0369 150.651 22.7881 150.978 23.3978C151.304 23.9857 151.751 24.4321 152.317 24.7369C152.883 25.0417 153.514 25.1942 154.211 25.1942C154.712 25.1942 155.191 25.1071 155.648 24.9329C156.127 24.7587 156.595 24.5301 157.053 24.247L159.078 27.6437C158.316 28.0792 157.488 28.4276 156.595 28.6889C155.724 28.9502 154.897 29.0808 154.113 29.0808Z" fill="#3498DB"/>
<path d="M173.799 29.0808C172.057 29.0808 170.576 28.7542 169.357 28.101C168.16 27.4478 167.245 26.5441 166.614 25.3901C165.982 24.2361 165.666 22.9079 165.666 21.4055C165.666 19.9684 166.037 18.6729 166.777 17.5189C167.517 16.3648 168.508 15.4503 169.749 14.7753C170.99 14.0786 172.373 13.7302 173.897 13.7302C175.944 13.7302 177.62 14.329 178.927 15.5265C180.255 16.7023 181.115 18.4116 181.507 20.6543L170.402 24.1817L169.39 21.6994L177.424 18.9886L176.477 19.4132C176.303 18.8471 175.987 18.3571 175.53 17.9434C175.095 17.508 174.43 17.2902 173.538 17.2902C172.863 17.2902 172.264 17.4535 171.741 17.7801C171.241 18.085 170.849 18.5313 170.566 19.1192C170.304 19.6854 170.174 20.3603 170.174 21.1442C170.174 22.0369 170.337 22.7881 170.664 23.3978C170.99 23.9857 171.437 24.4321 172.003 24.7369C172.569 25.0417 173.2 25.1942 173.897 25.1942C174.398 25.1942 174.877 25.1071 175.334 24.9329C175.813 24.7587 176.281 24.5301 176.738 24.247L178.763 27.6437C178.001 28.0792 177.174 28.4276 176.281 28.6889C175.41 28.9502 174.583 29.0808 173.799 29.0808Z" fill="#3498DB"/>
<path d="M198.58 27.4151C197.948 27.9159 197.154 28.3187 196.196 28.6236C195.259 28.9284 194.334 29.0808 193.419 29.0808C191.786 29.0808 190.36 28.7869 189.141 28.199C187.943 27.5893 187.007 26.7292 186.332 25.6188C185.679 24.4865 185.352 23.1256 185.352 21.5361C185.352 19.9466 185.712 18.5967 186.43 17.4862C187.149 16.3539 188.085 15.4939 189.239 14.906C190.415 14.3181 191.645 14.0241 192.93 14.0241C194.214 14.0241 195.325 14.1983 196.261 14.5467C197.219 14.8951 198.036 15.3523 198.711 15.9185L196.49 18.8579C196.185 18.6184 195.76 18.3789 195.216 18.1394C194.693 17.8781 194.073 17.7475 193.354 17.7475C192.723 17.7475 192.146 17.9108 191.623 18.2374C191.101 18.564 190.687 19.0104 190.382 19.5765C190.077 20.1426 189.925 20.7958 189.925 21.5361C189.925 22.2329 190.088 22.8752 190.415 23.4631C190.741 24.051 191.188 24.5192 191.754 24.8676C192.342 25.1942 193.028 25.3575 193.811 25.3575C194.312 25.3575 194.769 25.2921 195.183 25.1615C195.619 25.0091 195.989 24.8022 196.294 24.5409L198.58 27.4151Z" fill="#3498DB"/>
<path d="M203.725 28.6889V2.91943H208.199V17.2902L208.166 16.735C208.667 15.8423 209.375 15.1237 210.289 14.5794C211.204 14.0132 212.325 13.7302 213.653 13.7302C215.003 13.7302 216.125 14.133 217.018 14.9386C217.932 15.7225 218.4 16.7459 218.422 18.0088V28.6889H213.849V19.7071C213.828 19.0757 213.653 18.5749 213.327 18.2047C213.022 17.8128 212.499 17.6168 211.759 17.6168C211.062 17.6168 210.453 17.8455 209.93 18.3027C209.408 18.76 209.005 19.3805 208.722 20.1644C208.439 20.9482 208.297 21.8519 208.297 22.8752V28.6889H203.725Z" fill="#3498DB"/>
</svg>
