<svg width="40" height="40" viewBox="0 0 40 40" fill="none" xmlns="http://www.w3.org/2000/svg">
<path d="M9.10002 30.8167V25.9501C9.10002 24.3334 10.3667 22.8834 12.1667 22.8834C13.7834 22.8834 15.2334 24.1501 15.2334 25.9501V30.6334C15.2334 33.8834 12.5334 36.5834 9.28335 36.5834C6.03335 36.5834 3.33335 33.8667 3.33335 30.6334V20.3667C3.15002 11.0001 10.55 3.41675 19.9167 3.41675C29.2834 3.41675 36.6667 11.0001 36.6667 20.1834V30.4501C36.6667 33.7001 33.9667 36.4001 30.7167 36.4001C27.4667 36.4001 24.7667 33.7001 24.7667 30.4501V25.7667C24.7667 24.1501 26.0334 22.7001 27.8334 22.7001C29.45 22.7001 30.9 23.9667 30.9 25.7667V30.8167" stroke="#3498DB" stroke-width="2" stroke-linecap="round" stroke-linejoin="round"/>
</svg>
