<svg width="40" height="40" viewBox="0 0 40 40" fill="none" xmlns="http://www.w3.org/2000/svg">
<path d="M20 23.3333H21.6667C23.5 23.3333 25 21.8333 25 19.9999V3.33325H10C7.50002 3.33325 5.31668 4.71659 4.18335 6.74992" stroke="#3498DB" stroke-width="2" stroke-linecap="round" stroke-linejoin="round"/>
<path d="M3.33331 28.3333C3.33331 31.0999 5.56665 33.3333 8.33331 33.3333H9.99998C9.99998 31.4999 11.5 29.9999 13.3333 29.9999C15.1666 29.9999 16.6666 31.4999 16.6666 33.3333H23.3333C23.3333 31.4999 24.8333 29.9999 26.6666 29.9999C28.5 29.9999 30 31.4999 30 33.3333H31.6666C34.4333 33.3333 36.6666 31.0999 36.6666 28.3333V23.3333H31.6666C30.75 23.3333 30 22.5833 30 21.6666V16.6666C30 15.7499 30.75 14.9999 31.6666 14.9999H33.8166L30.9666 10.0166C30.673 9.50662 30.2506 9.08272 29.7416 8.78731C29.2327 8.49189 28.6551 8.33531 28.0666 8.33325H25V19.9999C25 21.8333 23.5 23.3333 21.6666 23.3333H20" stroke="#3498DB" stroke-width="2" stroke-linecap="round" stroke-linejoin="round"/>
<path d="M3.33331 13.3333H13.3333M3.33331 18.3333H9.99998M3.33331 23.3333H6.66665M13.3333 36.6666C14.2174 36.6666 15.0652 36.3154 15.6903 35.6903C16.3155 35.0652 16.6666 34.2173 16.6666 33.3333C16.6666 32.4492 16.3155 31.6014 15.6903 30.9762C15.0652 30.3511 14.2174 29.9999 13.3333 29.9999C12.4493 29.9999 11.6014 30.3511 10.9763 30.9762C10.3512 31.6014 9.99998 32.4492 9.99998 33.3333C9.99998 34.2173 10.3512 35.0652 10.9763 35.6903C11.6014 36.3154 12.4493 36.6666 13.3333 36.6666ZM26.6666 36.6666C27.5507 36.6666 28.3985 36.3154 29.0237 35.6903C29.6488 35.0652 30 34.2173 30 33.3333C30 32.4492 29.6488 31.6014 29.0237 30.9762C28.3985 30.3511 27.5507 29.9999 26.6666 29.9999C25.7826 29.9999 24.9347 30.3511 24.3096 30.9762C23.6845 31.6014 23.3333 32.4492 23.3333 33.3333C23.3333 34.2173 23.6845 35.0652 24.3096 35.6903C24.9347 36.3154 25.7826 36.6666 26.6666 36.6666ZM36.6666 19.9999V23.3333H31.6666C30.75 23.3333 30 22.5833 30 21.6666V16.6666C30 15.7499 30.75 14.9999 31.6666 14.9999H33.8166L36.6666 19.9999Z" stroke="#3498DB" stroke-width="2" stroke-linecap="round" stroke-linejoin="round"/>
</svg>
